<?xml version="1.0" encoding="UTF-8"?>
<svg id="Layer_1" xmlns="http://www.w3.org/2000/svg" version="1.1" viewBox="0 0 413.32 400">
  <!-- Generator: Adobe Illustrator 29.1.0, SVG Export Plug-In . SVG Version: 2.1.0 Build 142)  -->
  <defs>
    <style>
      .st0, .st1 {
        fill-rule: evenodd;
      }

      .st0, .st2 {
        fill: #797b7d;
      }

      .st1, .st3 {
        fill: #2e8c43;
      }
    </style>
  </defs>
  <g>
    <path class="st3" d="M91.81,354.24l1.12,13.75h-1.12c-1.14-3.43-2.6-6.01-4.4-7.74-2.59-2.51-5.92-3.76-9.99-3.76-5.55,0-9.77,2.2-12.66,6.59-2.42,3.71-3.63,8.12-3.63,13.24,0,4.16.8,7.95,2.41,11.37,1.61,3.43,3.71,5.94,6.31,7.53,2.6,1.6,5.28,2.39,8.02,2.39,1.61,0,3.16-.2,4.66-.61,1.5-.41,2.95-1.01,4.34-1.8v-12.6c0-2.18-.17-3.62-.5-4.29-.33-.67-.85-1.19-1.54-1.54-.7-.35-1.92-.53-3.68-.53v-1.22h16.87v1.22h-.8c-1.67,0-2.82.56-3.44,1.67-.43.79-.64,2.36-.64,4.69v13.33c-2.46,1.33-4.89,2.3-7.29,2.92-2.4.62-5.07.93-8,.93-8.42,0-14.81-2.7-19.18-8.1-3.28-4.05-4.92-8.72-4.92-14.01,0-3.83.92-7.51,2.76-11.02,2.18-4.18,5.18-7.39,9-9.64,3.19-1.86,6.96-2.8,11.31-2.8,1.58,0,3.03.13,4.32.39,1.3.26,3.13.82,5.51,1.7,1.2.45,2,.67,2.41.67s.76-.19,1.04-.56c.29-.37.47-1.11.53-2.2h1.19Z"/>
    <path class="st3" d="M129.05,384.22h-16.87l-2.96,6.88c-.73,1.69-1.09,2.96-1.09,3.79,0,.66.32,1.25.95,1.75.63.5,2,.83,4.1.98v1.19h-13.72v-1.19c1.82-.32,3-.74,3.53-1.25,1.09-1.03,2.3-3.12,3.63-6.27l15.33-35.86h1.12l15.17,36.24c1.22,2.91,2.33,4.8,3.33,5.67,1,.87,2.38,1.35,4.16,1.46v1.19h-17.19v-1.19c1.74-.09,2.91-.37,3.52-.87.61-.49.92-1.09.92-1.8,0-.94-.43-2.43-1.29-4.47l-2.64-6.27ZM128.15,381.84l-7.39-17.61-7.58,17.61h14.97Z"/>
    <path class="st3" d="M190.93,398.8h-11.63l-14.75-20.37c-1.09.04-1.98.06-2.67.06-.28,0-.58,0-.9-.02-.32-.01-.65-.03-1-.05v12.66c0,2.74.3,4.44.9,5.11.81.94,2.03,1.41,3.66,1.41h1.7v1.19h-18.67v-1.19h1.64c1.84,0,3.16-.6,3.95-1.8.45-.66.67-2.24.67-4.72v-28.15c0-2.74-.3-4.44-.9-5.11-.84-.94-2.08-1.41-3.73-1.41h-1.64v-1.19h15.87c4.63,0,8.04.34,10.23,1.01,2.2.67,4.06,1.92,5.59,3.73,1.53,1.81,2.3,3.97,2.3,6.48,0,2.68-.87,5-2.62,6.97-1.75,1.97-4.45,3.36-8.11,4.18l9,12.5c2.06,2.87,3.82,4.78,5.3,5.72,1.48.94,3.41,1.54,5.78,1.8v1.19ZM159.99,376.41c.41,0,.76,0,1.06.02.3.01.55.02.74.02,4.16,0,7.29-.9,9.4-2.7,2.11-1.8,3.17-4.09,3.17-6.88s-.85-4.93-2.55-6.64c-1.7-1.7-3.96-2.55-6.76-2.55-1.24,0-2.92.2-5.04.61v18.12Z"/>
    <path class="st3" d="M191.48,398.8v-1.19h1.64c1.84,0,3.15-.59,3.92-1.77.47-.71.71-2.29.71-4.76v-28.15c0-2.72-.3-4.42-.9-5.11-.84-.94-2.08-1.41-3.73-1.41h-1.64v-1.19h17.74c6.51,0,11.47.74,14.86,2.22,3.39,1.48,6.13,3.94,8.19,7.39,2.07,3.45,3.1,7.43,3.1,11.95,0,6.06-1.84,11.13-5.53,15.2-4.13,4.54-10.43,6.81-18.89,6.81h-19.47ZM203.91,395.66c2.72.6,5,.9,6.84.9,4.97,0,9.09-1.75,12.37-5.24,3.28-3.49,4.92-8.23,4.92-14.2s-1.64-10.76-4.92-14.23-7.49-5.21-12.63-5.21c-1.93,0-4.12.31-6.59.93v37.05Z"/>
    <path class="st3" d="M251.63,357.61v17.22h9.58c2.48,0,4.15-.37,4.98-1.12,1.11-.98,1.73-2.72,1.86-5.21h1.19v15.17h-1.19c-.3-2.12-.6-3.48-.9-4.08-.39-.75-1.02-1.34-1.9-1.77-.88-.43-2.23-.64-4.05-.64h-9.58v14.36c0,1.93.09,3.1.26,3.52.17.42.47.75.9,1,.43.25,1.24.37,2.44.37h7.39c2.46,0,4.25-.17,5.37-.51,1.11-.34,2.18-1.02,3.21-2.02,1.33-1.33,2.69-3.33,4.08-6.01h1.29l-3.76,10.92h-33.58v-1.19h1.54c1.03,0,2-.25,2.92-.74.69-.34,1.15-.86,1.4-1.54.25-.69.37-2.09.37-4.21v-28.31c0-2.76-.28-4.47-.84-5.11-.77-.86-2.06-1.29-3.86-1.29h-1.54v-1.19h33.58l.48,9.54h-1.25c-.45-2.29-.95-3.87-1.49-4.72-.55-.86-1.36-1.51-2.43-1.96-.86-.32-2.37-.48-4.53-.48h-11.95Z"/>
    <path class="st3" d="M277.21,355.23h11.82l26.64,32.68v-25.13c0-2.68-.3-4.35-.9-5.01-.79-.9-2.05-1.35-3.76-1.35h-1.51v-1.19h15.17v1.19h-1.54c-1.84,0-3.15.56-3.92,1.67-.47.69-.71,2.25-.71,4.69v36.73h-1.16l-28.73-35.09v26.83c0,2.68.29,4.35.87,5.01.81.9,2.07,1.35,3.76,1.35h1.54v1.19h-15.17v-1.19h1.51c1.86,0,3.18-.56,3.95-1.67.47-.69.71-2.25.71-4.69v-30.3c-1.26-1.48-2.22-2.45-2.88-2.92-.65-.47-1.61-.91-2.88-1.32-.62-.19-1.56-.29-2.83-.29v-1.19Z"/>
    <path class="st3" d="M355.77,354.24v15.07h-1.19c-.39-2.89-1.08-5.19-2.07-6.91s-2.42-3.07-4.26-4.08c-1.84-1.01-3.75-1.51-5.72-1.51-2.23,0-4.07.68-5.53,2.04-1.46,1.36-2.18,2.91-2.18,4.64,0,1.33.46,2.54,1.38,3.63,1.33,1.61,4.49,3.75,9.48,6.43,4.07,2.18,6.85,3.86,8.34,5.03,1.49,1.17,2.63,2.54,3.44,4.13.8,1.59,1.2,3.25,1.2,4.98,0,3.3-1.28,6.14-3.84,8.53-2.56,2.39-5.85,3.58-9.88,3.58-1.26,0-2.45-.1-3.57-.29-.66-.11-2.04-.5-4.13-1.17-2.09-.67-3.41-1.01-3.97-1.01s-.96.16-1.27.48c-.31.32-.54.99-.69,1.99h-1.19v-14.94h1.19c.56,3.13,1.31,5.47,2.25,7.02.94,1.55,2.38,2.84,4.32,3.87,1.94,1.03,4.06,1.54,6.38,1.54,2.68,0,4.79-.71,6.35-2.12,1.55-1.41,2.33-3.08,2.33-5.01,0-1.07-.29-2.15-.88-3.25-.59-1.09-1.51-2.11-2.75-3.05-.83-.64-3.12-2.01-6.84-4.1-3.73-2.09-6.38-3.75-7.95-5-1.57-1.24-2.77-2.61-3.58-4.11-.81-1.5-1.22-3.15-1.22-4.95,0-3.13,1.2-5.82,3.6-8.08,2.4-2.26,5.45-3.39,9.16-3.39,2.31,0,4.77.57,7.36,1.7,1.2.54,2.05.8,2.54.8.56,0,1.01-.17,1.37-.5.35-.33.64-1,.85-2.01h1.19Z"/>
  </g>
  <g>
    <path class="st2" d="M47.81,318.68l1.25.27-4.41,13.98H4.78v-1.41h1.94c2.18,0,3.73-.71,4.67-2.13.53-.81.8-2.68.8-5.62v-33.23c0-3.22-.36-5.23-1.06-6.04-.99-1.11-2.46-1.67-4.41-1.67h-1.94v-1.41h23.32v1.41c-2.74-.02-4.65.23-5.75.76s-1.86,1.2-2.26,2.01c-.41.81-.61,2.75-.61,5.81v32.36c0,2.1.2,3.55.61,4.33.3.53.77.92,1.41,1.18.63.25,2.61.38,5.93.38h3.76c3.95,0,6.72-.29,8.32-.87,1.59-.58,3.05-1.61,4.37-3.1,1.32-1.48,2.63-3.82,3.95-7.01Z"/>
    <path class="st2" d="M74.74,331.52v1.41h-22.07v-1.41h1.82c2.13,0,3.67-.62,4.63-1.86.61-.81.91-2.76.91-5.85v-33.27c0-2.61-.16-4.33-.49-5.17-.25-.63-.77-1.18-1.56-1.63-1.12-.61-2.28-.91-3.49-.91h-1.82v-1.41h22.07v1.41h-1.86c-2.1,0-3.63.62-4.6,1.86-.63.81-.95,2.76-.95,5.85v33.27c0,2.61.16,4.33.49,5.17.25.63.78,1.18,1.59,1.63,1.09.61,2.24.91,3.46.91h1.86Z"/>
    <path class="st2" d="M92.55,284.23v20.24h9.38c2.15,0,3.73-.47,4.73-1.42,1-.95,1.66-2.83,1.99-5.64h1.41v17.43h-1.41c-.03-2-.28-3.47-.78-4.41-.49-.94-1.18-1.64-2.05-2.11-.87-.47-2.17-.7-3.89-.7h-9.38v16.18c0,2.61.16,4.33.49,5.17.25.63.79,1.18,1.6,1.63,1.11.61,2.28.91,3.49.91h1.86v1.41h-22.11v-1.41h1.82c2.13,0,3.67-.62,4.63-1.86.61-.81.91-2.76.91-5.85v-33.27c0-2.61-.17-4.33-.49-5.17-.25-.63-.77-1.18-1.56-1.63-1.09-.61-2.25-.91-3.49-.91h-1.82v-1.41h38.32l.49,11.32h-1.33c-.66-2.4-1.42-4.17-2.3-5.3-.87-1.13-1.95-1.94-3.23-2.45-1.28-.51-3.26-.76-5.94-.76h-11.36Z"/>
    <path class="st2" d="M136.16,284.23v20.36h11.32c2.94,0,4.9-.44,5.89-1.33,1.32-1.16,2.05-3.22,2.2-6.15h1.41v17.93h-1.41c-.36-2.51-.71-4.11-1.06-4.82-.46-.89-1.2-1.58-2.24-2.09-1.04-.51-2.63-.76-4.79-.76h-11.32v16.98c0,2.28.1,3.67.3,4.16.2.49.56.89,1.06,1.18.51.29,1.47.44,2.89.44h8.74c2.91,0,5.03-.2,6.34-.61,1.32-.4,2.58-1.2,3.8-2.39,1.57-1.57,3.18-3.94,4.82-7.1h1.52l-4.44,12.91h-39.69v-1.41h1.82c1.22,0,2.37-.29,3.46-.87.81-.4,1.36-1.01,1.65-1.82.29-.81.44-2.47.44-4.98v-33.46c0-3.27-.33-5.28-.99-6.04-.91-1.01-2.43-1.52-4.56-1.52h-1.82v-1.41h39.69l.57,11.28h-1.48c-.53-2.71-1.12-4.57-1.77-5.58-.65-1.01-1.6-1.79-2.87-2.32-1.01-.38-2.8-.57-5.36-.57h-14.13Z"/>
    <path class="st2" d="M203.08,280.24v17.81h-1.41c-.46-3.42-1.27-6.14-2.45-8.17-1.18-2.03-2.86-3.63-5.03-4.82-2.18-1.19-4.43-1.79-6.76-1.79-2.63,0-4.81.8-6.53,2.41-1.72,1.61-2.58,3.44-2.58,5.49,0,1.57.54,3,1.63,4.29,1.57,1.9,5.3,4.43,11.2,7.6,4.81,2.58,8.1,4.56,9.86,5.94,1.76,1.38,3.11,3.01,4.06,4.88.95,1.87,1.42,3.84,1.42,5.89,0,3.9-1.51,7.26-4.54,10.08-3.03,2.82-6.92,4.23-11.68,4.23-1.49,0-2.9-.11-4.22-.34-.79-.13-2.41-.59-4.88-1.39-2.47-.8-4.03-1.2-4.69-1.2s-1.13.19-1.5.57-.64,1.17-.82,2.36h-1.41v-17.66h1.41c.66,3.7,1.54,6.46,2.66,8.3,1.11,1.84,2.82,3.36,5.11,4.58,2.29,1.21,4.8,1.82,7.54,1.82,3.17,0,5.67-.84,7.5-2.51,1.84-1.67,2.75-3.65,2.75-5.93,0-1.27-.35-2.54-1.04-3.84-.7-1.29-1.78-2.49-3.25-3.61-.99-.76-3.68-2.37-8.09-4.84-4.41-2.47-7.54-4.44-9.4-5.91-1.86-1.47-3.27-3.09-4.23-4.86-.96-1.77-1.44-3.72-1.44-5.85,0-3.7,1.42-6.88,4.25-9.55,2.84-2.67,6.44-4.01,10.82-4.01,2.73,0,5.63.67,8.7,2.01,1.42.63,2.42.95,3,.95.66,0,1.2-.2,1.61-.59.42-.39.75-1.18,1.01-2.37h1.41Z"/>
    <path class="st2" d="M255.69,281.42l.57,12.08h-1.44c-.28-2.13-.66-3.65-1.14-4.56-.79-1.47-1.83-2.55-3.13-3.25-1.3-.7-3.02-1.04-5.15-1.04h-7.25v39.35c0,3.17.34,5.14,1.03,5.93.96,1.06,2.44,1.59,4.44,1.59h1.79v1.41h-21.84v-1.41h1.82c2.18,0,3.72-.66,4.63-1.98.56-.81.84-2.66.84-5.55v-39.35h-6.19c-2.41,0-4.12.18-5.13.53-1.32.48-2.44,1.41-3.38,2.77-.94,1.37-1.49,3.22-1.67,5.55h-1.44l.61-12.08h42.05Z"/>
    <path class="st2" d="M295.26,281.42h17.97v1.41h-.99c-.66,0-1.62.29-2.89.87-1.27.58-2.42,1.42-3.46,2.51-1.04,1.09-2.32,2.86-3.84,5.32l-12.42,19.56v12.91c0,3.17.35,5.14,1.06,5.93.96,1.06,2.48,1.59,4.56,1.59h1.67v1.41h-21.88v-1.41h1.82c2.18,0,3.72-.66,4.63-1.98.56-.81.84-2.66.84-5.55v-12.19l-14.13-21.57c-1.67-2.53-2.8-4.11-3.4-4.75-.6-.63-1.83-1.39-3.7-2.28-.51-.25-1.24-.38-2.2-.38v-1.41h22.03v1.41h-1.14c-1.19,0-2.29.28-3.29.84-1,.56-1.5,1.39-1.5,2.51,0,.91.77,2.56,2.32,4.94l10.75,16.6,10.1-15.88c1.52-2.38,2.28-4.15,2.28-5.32,0-.71-.18-1.34-.55-1.9-.37-.56-.89-.99-1.58-1.31-.68-.32-1.71-.47-3.08-.47v-1.41Z"/>
    <path class="st2" d="M358.96,318.68l1.25.27-4.41,13.98h-39.88v-1.41h1.94c2.18,0,3.73-.71,4.67-2.13.53-.81.8-2.68.8-5.62v-33.23c0-3.22-.36-5.23-1.06-6.04-.99-1.11-2.46-1.67-4.41-1.67h-1.94v-1.41h23.32v1.41c-2.74-.02-4.65.23-5.75.76s-1.86,1.2-2.26,2.01c-.41.81-.61,2.75-.61,5.81v32.36c0,2.1.2,3.55.61,4.33.3.53.77.92,1.41,1.18.63.25,2.61.38,5.93.38h3.76c3.95,0,6.72-.29,8.32-.87,1.59-.58,3.05-1.61,4.37-3.1,1.32-1.48,2.63-3.82,3.95-7.01Z"/>
    <path class="st2" d="M378.14,284.23v20.36h11.32c2.94,0,4.9-.44,5.89-1.33,1.32-1.16,2.05-3.22,2.2-6.15h1.41v17.93h-1.41c-.36-2.51-.71-4.11-1.06-4.82-.46-.89-1.2-1.58-2.24-2.09-1.04-.51-2.63-.76-4.79-.76h-11.32v16.98c0,2.28.1,3.67.3,4.16.2.49.56.89,1.06,1.18.51.29,1.47.44,2.89.44h8.74c2.91,0,5.03-.2,6.34-.61,1.32-.4,2.58-1.2,3.8-2.39,1.57-1.57,3.18-3.94,4.82-7.1h1.52l-4.44,12.91h-39.69v-1.41h1.82c1.22,0,2.37-.29,3.46-.87.81-.4,1.36-1.01,1.65-1.82.29-.81.44-2.47.44-4.98v-33.46c0-3.27-.33-5.28-.99-6.04-.91-1.01-2.43-1.52-4.56-1.52h-1.82v-1.41h39.69l.57,11.28h-1.48c-.53-2.71-1.12-4.57-1.77-5.58-.65-1.01-1.6-1.79-2.87-2.32-1.01-.38-2.8-.57-5.36-.57h-14.13Z"/>
  </g>
  <rect class="st3" x="375.84" y="375.56" width="31.77" height="2.92"/>
  <rect class="st3" x="4.78" y="375.56" width="31.77" height="2.92"/>
  <path class="st1" d="M370.97,232.74c.38,8.14,8.98,11.39,16.67,8.34-5.56-2.78-9.43-14.26-16.67-8.34"/>
  <path class="st1" d="M368.27,213.48c6.76-2.32,12.75,3.64,13.27,10.91-4.42-3.64-15.26-3.09-13.27-10.91"/>
  <path class="st1" d="M362.74,195.64c6.96-4.67,16.04.44,19.28,8.66-6.43-2.89-18.73.93-19.28-8.66"/>
  <path class="st1" d="M309.29,152.38c5.16-6.19,15.39-3.61,21.03,3.39-7.01-1.13-17.52,5.6-21.03-3.39"/>
  <path class="st1" d="M258.64,114.14c5.06-9.53,19.52-8.54,29.16-.53-9.72.17-21.78,11.71-29.16.53"/>
  <path class="st1" d="M216.23,92.46c-2.78-8.69,7.1-15.44,18.33-15.24-6.11,5.08-6.54,18.62-18.33,15.24"/>
  <path class="st1" d="M259.28,69.63c-10.76-.01-15.54-11.15-11.97-21.47,3.99,7.16,19.34,11.58,11.97,21.47"/>
  <path class="st1" d="M265.6,52.42c-7.56-3.6-6.33-13.04.46-19.11-.15,6.37,8.82,14.62-.46,19.11"/>
  <path class="st1" d="M344.82,180.77c1.28-6.99,10.79-8.78,18.66-5.25-6.22,1.75-11.58,11.2-18.66,5.25"/>
  <path class="st1" d="M381.79,158.74c3.6-8.07,15.54-7.94,23.92-1.81-7.97.6-17.21,10.65-23.92,1.81"/>
  <path class="st1" d="M325.8,173.93c-5.17-4.51-1.69-11.87,5.37-15.34-1.79,5.11,3.3,13.67-5.37,15.34"/>
  <path class="st1" d="M354.03,147c-2.23-8.46,7.6-14.54,18.37-13.88-6.12,4.63-7.22,17.62-18.37,13.88"/>
  <path class="st1" d="M382.44,188.62c6.62-4.44,15.25.42,18.34,8.24-6.11-2.75-17.81.89-18.34-8.24"/>
  <path class="st1" d="M381.68,172.1c8.96-6.05,20.7.53,24.91,11.13-8.3-3.71-24.16,1.25-24.91-11.13"/>
  <path class="st1" d="M384.68,206.98c5.3-5.51,14.73-2.49,19.52,4.43-6.51-1.48-16.87,4.22-19.52-4.43"/>
  <path class="st1" d="M388.61,219.23c8.07-.68,12.54,7.37,10.68,15.34-3.56-5.11-15.43-7.44-10.68-15.34"/>
  <path class="st1" d="M310.76,210.87c8.15-.04,11.83,8.38,9.18,16.22-3.06-5.41-14.72-8.7-9.18-16.22"/>
  <path class="st1" d="M334.28,218.53c5.73-.03,8.32,5.9,6.46,11.4-2.15-3.8-10.35-6.11-6.46-11.4"/>
  <path class="st1" d="M365.81,122.74c4.49-8.13,17.01-6.89,25.27.3-8.42-.1-18.99,9.58-25.27-.3"/>
  <path class="st1" d="M377.2,145.8c-2-7.96,7.3-13.57,17.4-12.86-5.8,4.28-6.98,16.46-17.4,12.86"/>
  <path class="st1" d="M329.96,125.18c-1.44-6.24,5.91-10.51,13.8-9.83-4.6,3.28-5.72,12.78-13.8,9.83"/>
  <path class="st1" d="M351.47,96.71c3.66-7.8,15.28-7.5,23.33-1.41-7.78.47-16.95,10.12-23.33,1.41"/>
  <path class="st1" d="M345,87.21c-2.2-8.23,7.36-14.18,17.86-13.57-5.95,4.52-6.99,17.18-17.86,13.57"/>
  <path class="st1" d="M276.95,96.9c2.7-6.06,11.66-5.96,17.95-1.36-5.98.45-12.91,7.99-17.95,1.36"/>
  <path class="st1" d="M272.57,153.96c-8.81-4.86-6.52-16.16,2.17-23.01-.72,7.67,9.4,18.23-2.17,23.01"/>
  <path class="st1" d="M295.05,135.94c-8.52-1.56-10.32-11.08-5.64-18.74,1.88,6.25,13.25,11.97,5.64,18.74"/>
  <path class="st1" d="M306.72,118.12c-8.52-.13-12.15-9.01-9.18-17.15,3.06,5.72,15.16,9.4,9.18,17.15"/>
  <path class="st1" d="M327.82,142.58c3.9-5,12.05-3.19,16.69,2.21-5.56-.74-13.67,4.81-16.69-2.21"/>
  <path class="st1" d="M348.04,133.95c2.15-5,9.5-5,14.72-1.28-4.9.43-10.5,6.68-14.72,1.28"/>
  <path class="st1" d="M290.38,163.38c2.38-6.49,11.74-6.92,18.65-2.48-6.22.83-12.9,9.11-18.65,2.48"/>
  <path class="st1" d="M355.59,164.87c.37-6.47,8.82-8.97,16.37-6.47-5.46,2.16-9.27,11.24-16.37,6.47"/>
  <path class="st1" d="M292.24,82.18c.38-5.53,7.63-7.59,14.06-5.4-4.68,1.8-8.03,9.53-14.06,5.4"/>
  <path class="st1" d="M314.46,56.85c2.98-8.03,14.59-8.53,23.14-3.01-7.71,1.01-16.04,11.26-23.14,3.01"/>
  <path class="st1" d="M278.92,51.48c9.09,2.22,15.98-6.19,15.61-15.65-5.21,5.22-19.31,5.77-15.61,15.65"/>
  <path class="st1" d="M255.02,85.52c-7.74,0-11.18-8.02-8.61-15.44,2.87,5.15,13.91,8.33,8.61,15.44"/>
  <path class="st1" d="M246.64,100.11c-8.22,0-11.87-8.52-9.15-16.4,3.05,5.47,14.78,8.85,9.15,16.4"/>
  <path class="st1" d="M268.84,81.95c-1.42-5.49,4.98-9.41,11.97-8.96-3.99,2.99-4.75,11.41-11.97,8.96"/>
  <path class="st1" d="M272.62,67.37c-1.42-5.49,4.98-9.41,11.97-8.96-3.99,2.98-4.75,11.41-11.97,8.96"/>
  <path class="st1" d="M292.81,67.86c-4.84-3.59-2.4-10.2,3.46-13.65-1.15,4.55,3.93,11.66-3.46,13.65"/>
  <path class="st1" d="M300.44,51.38c-4.74-7.43,2.66-15.64,13.05-17.73-4.35,5.91-1.35,18.46-13.05,17.73"/>
  <path class="st1" d="M310.93,96.76c-5.85-.09-8.35-6.19-6.3-11.78,2.1,3.93,10.41,6.45,6.3,11.78"/>
  <path class="st1" d="M325.84,99.33c-4.64-6.98,2.23-14.89,12.05-17.03-4.02,5.68-.93,17.55-12.05,17.03"/>
  <path class="st1" d="M339.46,75c-5.87-5.32-1.68-13.77,6.58-17.65-2.19,5.88,3.5,15.89-6.58,17.65"/>
  <path class="st1" d="M350.08,119.17c-4.59-5.33.18-12.45,8.02-15.1-2.67,5.03,1.18,14.52-8.02,15.1"/>
  <path class="st1" d="M366.84,113.82c-2.31-7.01,5.82-12.46,15.09-12.29-5.03,4.1-5.35,15.02-15.09,12.29"/>
  <path class="st1" d="M365.46,179.47c-.49-4.6,5.18-7.15,10.79-6.1-3.6,2.03-5.23,8.79-10.79,6.1"/>
  <path class="st1" d="M225.66,69.36c-2.24-7,5.72-12.45,14.77-12.28-4.92,4.09-5.27,15.01-14.77,12.28"/>
  <path class="st1" d="M238.33,41.65c-2.76-7.62,5.76-13.88,15.72-14.01-5.24,4.67-5.15,16.68-15.72,14.01"/>
  <path class="st1" d="M270.86,35.45c-2.49-7.78,6.35-13.83,16.41-13.65-5.47,4.55-5.86,16.68-16.41,13.65"/>
  <path class="st1" d="M198.11,41.95c-1.25-5.53,5.28-9.29,12.25-8.65-4.08,2.88-5.1,11.29-12.25,8.65"/>
  <path class="st1" d="M215.52,56.5c-6.01-.2-8.43-6.51-6.2-12.2,2.07,4.07,10.54,6.82,6.2,12.2"/>
  <path class="st1" d="M213,29.83c-7.38-.25-10.35-7.99-7.62-14.98,2.54,4.99,12.94,8.37,7.62,14.98"/>
  <path class="st1" d="M231.96,23.24c4.59-6.1-1.17-13.57-9.93-15.96,3.31,5.32-.15,15.91,9.93,15.96"/>
  <path class="st1" d="M240.42,14.3c-1.66-5.19,4.24-9.23,10.96-9.11-3.65,3.04-3.91,11.13-10.96,9.11"/>
  <path class="st1" d="M212.89,12.4c4.49-2.17,3.72-7.78-.34-11.37.11,3.79-5.2,8.73.34,11.37"/>
  <path class="st1" d="M326.54,77.47c-4.47-3.8-1.6-10.13,4.4-13.16-1.47,4.39,2.99,11.65-4.4,13.16"/>
  <path class="st1" d="M243.21,131.42c3.78-6.76,14.12-5.87,20.9-.01-6.96,0-15.78,8.11-20.9.01"/>
  <path class="st1" d="M310.26,179.67c-4.1-3.58-1.35-9.41,4.26-12.16-1.42,4.05,2.62,10.84-4.26,12.16"/>
  <path class="st1" d="M341.83,161.76c-4.47-3.9-1.46-10.26,4.64-13.25-1.55,4.42,2.86,11.81-4.64,13.25"/>
  <path class="st1" d="M265.89,23.88c5.22-5.69.26-13.62-8.21-16.75,2.74,5.58-1.83,15.84,8.21,16.75"/>
  <path class="st1" d="M351.6,219.96c5.28,1.96,6.01,8.67,2.75,13.44-.92-4.48-7.81-9.58-2.75-13.44"/>
  <path class="st1" d="M346.12,203.87c3.82-4.16,10.84-2.06,14.51,2.98-4.83-.99-12.4,3.38-14.51-2.98"/>
  <path class="st1" d="M306.99,71.64c2.29-5.14,9.89-5.06,15.23-1.16-5.08.39-10.96,6.78-15.23,1.16"/>
  <path class="st1" d="M49.54,196.68c-5.42-3.64-12.5.35-15.02,6.75,5.01-2.25,14.59.72,15.02-6.75"/>
  <path class="st1" d="M98.34,151.64c-4.79-6.97-14.3-4.07-19.54,3.81,6.51-1.27,16.28,6.3,19.54-3.81"/>
  <path class="st1" d="M151.16,111.27c-4.43-9.94-19.14-9.78-29.47-2.23,9.82.74,21.2,13.12,29.47,2.23"/>
  <path class="st1" d="M196.07,98.62c2.84-8.87-7.24-15.77-18.71-15.56,6.24,5.19,6.68,19.02,18.71,15.56"/>
  <path class="st1" d="M153.39,68.1c9.5,0,13.72-9.84,10.56-18.95-3.52,6.32-17.07,10.22-10.56,18.95"/>
  <path class="st1" d="M147.44,52.42c7.56-3.6,6.32-13.04-.46-19.11.15,6.37-8.82,14.62.46,19.11"/>
  <path class="st1" d="M68.41,183.48c.5-7.06-8.32-10.74-16.87-8.88,5.62,2.96,8.49,13.25,16.87,8.88"/>
  <path class="st1" d="M35.26,158.99c-3.6-8.07-15.54-7.94-23.92-1.81,7.97.6,17.2,10.65,23.92,1.81"/>
  <path class="st1" d="M85.2,173.18c5.17-4.51,1.7-11.87-5.37-15.34,1.79,5.11-3.3,13.67,5.37,15.34"/>
  <path class="st1" d="M57.14,151.05c2.23-8.46-7.6-14.54-18.37-13.88,6.13,4.63,7.22,17.62,18.37,13.88"/>
  <path class="st1" d="M26.13,189.62c-6.62-4.44-15.25.42-18.34,8.24,6.11-2.75,17.81.88,18.34-8.24"/>
  <path class="st1" d="M29.67,172.48c-8.96-6.05-20.69.53-24.9,11.13,8.3-3.71,24.16,1.25,24.9-11.13"/>
  <path class="st1" d="M102.28,210.87c-8.15-.04-11.84,8.38-9.18,16.22,3.06-5.41,14.72-8.7,9.18-16.22"/>
  <path class="st1" d="M77.86,220.2c-5.73-.03-8.32,5.9-6.46,11.4,2.15-3.8,10.35-6.11,6.46-11.4"/>
  <path class="st1" d="M46.59,123.37c-4.76-8.63-18.06-7.32-26.83.31,8.94-.1,20.16,10.17,26.83-.31"/>
  <path class="st1" d="M36.94,148.2c2-7.96-7.3-13.57-17.41-12.86,5.8,4.28,6.98,16.46,17.41,12.86"/>
  <path class="st1" d="M78.93,120.92c1.64-7.14-6.76-12.02-15.78-11.23,5.26,3.74,6.53,14.61,15.78,11.23"/>
  <path class="st1" d="M61.57,96.71c-3.66-7.8-15.28-7.5-23.33-1.41,7.78.47,16.95,10.12,23.33,1.41"/>
  <path class="st1" d="M68.04,87.21c2.2-8.23-7.36-14.18-17.86-13.57,5.96,4.52,6.99,17.18,17.86,13.57"/>
  <path class="st1" d="M131.22,93.31c-2.9-6.5-12.51-6.39-19.26-1.46,6.42.49,13.85,8.58,19.26,1.46"/>
  <path class="st1" d="M142.07,154.82c8.64-3.08,8.56-13.4,2.05-20.68-.68,6.89-11.47,14.83-2.05,20.68"/>
  <path class="st1" d="M118.22,136.1c8.52-1.57,10.32-11.08,5.64-18.74-1.88,6.25-13.25,11.97-5.64,18.74"/>
  <path class="st1" d="M106,117.33c8.52-.13,12.16-9.01,9.18-17.15-3.06,5.72-15.16,9.4-9.18,17.15"/>
  <path class="st1" d="M80.67,141.36c-3.91-5-12.05-3.19-16.69,2.21,5.57-.74,13.67,4.8,16.69-2.21"/>
  <path class="st1" d="M65,133.95c-2.15-5-9.5-5-14.72-1.28,4.91.43,10.51,6.68,14.72,1.28"/>
  <path class="st1" d="M116.12,163.77c-2.38-6.49-11.74-6.92-18.65-2.48,6.22.83,12.9,9.11,18.65,2.48"/>
  <path class="st1" d="M57.98,167.15c-.37-6.47-8.82-8.97-16.37-6.47,5.46,2.16,9.27,11.24,16.37,6.47"/>
  <path class="st1" d="M110.75,79.61c-.38-5.52-7.62-7.59-14.06-5.39,4.69,1.8,8.03,9.53,14.06,5.39"/>
  <path class="st1" d="M100.16,54.75c-2.98-8.03-14.59-8.53-23.14-3.01,7.71,1.01,16.04,11.25,23.14,3.01"/>
  <path class="st1" d="M132.43,48.63c-9.09,2.22-15.99-6.19-15.61-15.65,5.2,5.22,19.31,5.77,15.61,15.65"/>
  <path class="st1" d="M158.02,85.52c7.74,0,11.18-8.02,8.61-15.44-2.87,5.15-13.91,8.33-8.61,15.44"/>
  <path class="st1" d="M164.5,100.87c7.89,0,11.4-8.18,8.78-15.75-2.93,5.25-14.2,8.5-8.78,15.75"/>
  <path class="st1" d="M144.2,81.95c1.42-5.49-4.98-9.41-11.97-8.96,3.99,2.99,4.75,11.41,11.97,8.96"/>
  <path class="st1" d="M140.36,67.22c1.91-7.4-6.71-12.69-16.14-12.08,5.38,4.03,6.4,15.38,16.14,12.08"/>
  <path class="st1" d="M120.24,67.86c4.84-3.59,2.4-10.2-3.46-13.65,1.15,4.55-3.94,11.66,3.46,13.65"/>
  <path class="st1" d="M111.54,52.9c4.73-7.43-2.66-15.65-13.05-17.73,4.35,5.91,1.35,18.46,13.05,17.73"/>
  <path class="st1" d="M99.34,94.99c5.85-.09,8.35-6.19,6.3-11.78-2.1,3.92-10.41,6.46-6.3,11.78"/>
  <path class="st1" d="M87.56,99.13c5.5-8.28-2.65-17.67-14.29-20.2,4.77,6.73,1.11,20.81,14.29,20.2"/>
  <path class="st1" d="M73.58,75c5.87-5.32,1.68-13.77-6.58-17.65,2.2,5.88-3.49,15.89,6.58,17.65"/>
  <path class="st1" d="M58.37,122.6c4.59-5.32-.18-12.45-8.02-15.09,2.67,5.03-1.18,14.52,8.02,15.09"/>
  <path class="st1" d="M46.2,113.82c2.31-7.01-5.82-12.46-15.08-12.29,5.03,4.1,5.35,15.02,15.08,12.29"/>
  <path class="st1" d="M47.58,179.47c.49-4.6-5.18-7.15-10.79-6.1,3.6,2.03,5.23,8.79,10.79,6.1"/>
  <path class="st1" d="M186.89,67.7c-1.42-7.17-11.25-8.9-19.28-5.16,6.43,1.72,12.1,11.38,19.28,5.16"/>
  <path class="st1" d="M172.64,42.5c-.88-7.24-10.55-9.56-18.85-6.32,6.28,2.11,11.21,12.08,18.85,6.32"/>
  <path class="st1" d="M141.29,36c2.49-7.78-6.35-13.83-16.41-13.65,5.47,4.55,5.86,16.68,16.41,13.65"/>
  <path class="st1" d="M194.92,26.42c-6.41-.21-8.99-6.94-6.62-13.02,2.21,4.34,11.25,7.27,6.62,13.02"/>
  <path class="st1" d="M180.04,16.35c-6.38-2.35-6.22-10-1.32-15.35.44,5.12,8.37,11.08,1.32,15.35"/>
  <path class="st1" d="M174.85,26.33c.57-8.9-10.57-13.47-21.33-11.08,7.11,3.69,10.8,16.64,21.33,11.08"/>
  <path class="st1" d="M193.71,15.8c-4.38-5.61.84-12.64,8.95-14.99-2.98,5,.43,14.8-8.95,14.99"/>
  <path class="st1" d="M86.51,77.47c4.47-3.8,1.59-10.13-4.4-13.16,1.47,4.39-2.99,11.65,4.4,13.16"/>
  <path class="st1" d="M163.95,126.85c-3.78-6.76-14.12-5.87-20.89,0,6.96,0,15.78,8.11,20.89,0"/>
  <path class="st1" d="M102.36,181.57c4.1-3.58,1.35-9.42-4.26-12.16,1.42,4.05-2.62,10.84,4.26,12.16"/>
  <path class="st1" d="M69.24,160.54c4.47-3.9,1.46-10.26-4.64-13.25,1.54,4.42-2.86,11.81,4.64,13.25"/>
  <path class="st1" d="M145.06,24.55c-3.9-4.11-.38-9.98,5.79-12.37-1.93,4.12,1.56,11.59-5.79,12.37"/>
  <path class="st1" d="M58.86,225.76c-5.52-1.08-9.64,4.27-9.34,10.04,3.11-3.35,11.66-4.12,9.34-10.04"/>
  <path class="st1" d="M111.02,64.03c-2.29-5.14-9.89-5.05-15.23-1.15,5.08.38,10.95,6.78,15.23,1.15"/>
  <path class="st1" d="M186.87,41.61c-5.97-2.25-5.76-9.44-1.11-14.42.37,4.81,7.76,10.46,1.11,14.42"/>
  <path class="st1" d="M203.79,69.53c5.56-4.01,2.91-11.56-3.69-15.57,1.23,5.19-4.68,13.2,3.69,15.57"/>
  <path class="st1" d="M64.92,207.24c-3.97-5.44-12.71-3.77-17.86,1.85,5.95-.62,14.38,5.53,17.86-1.85"/>
  <path class="st0" d="M227.12,252.38c1.27-20.68,1.02-38.86,25.14-49.57,6.59-2.93,14.17-1.55,28.43-3.08,7.6-.82,25.4,1.58,34.6,7.71,15.63,10.4,28.31,1.62,39.21,8.5,6.02,3.8,8.34,6.96,12.55,14.31-2.22-7.39-2.39-13.72-14.9-19.47-7.63-3.51-14.47-1.91-23.7-4.54-6.65-1.89-12.27-7.56-15.52-10.94,14.18.49,11.77,2.21,24.36,1.55,4.79-.25,8.89-3.75,15.38-5.91,9.19-3.06,20.79-2.59,26.22-.52-3.84-6.36-20.67-5.05-30.16-3.7-3.98.57-8.44,4.51-13.59,4.82-3.4.2-9.74-1.89-13.03-2.98,9.41-5.16,17.64-10.56,22.11-17.02,5.47-7.9,11.67-15.64,20.07-19.14-13.17-.12-20.1,13.38-28.48,19.97-4.18,3.28-10.68,4.75-15.85,7.08-17.6,7.95-39.17,6.71-49.85,4.13,3.56-8.63,17.53-22.84,31.58-34.54,6.37-1.35,12.64-3.5,18.62-6.22,13.37-6.08,21.72-16.41,39.79-17.88-13.73-2.34-26.25,4.2-36.39,10.54-4.41,2.76-8.24,4.54-12.41,5.47,4.81-4.64,8.2-9.4,12.48-14.93,9.63-12.45,5.52-18.15,20.93-33.1-16.31,8.94-16.39,17.03-24.53,26.71-.58.69-1.16,1.36-1.75,2.02-1.18-4.04-.93-7.8.41-12.67,2.38-8.68,4.23-19.02-1.68-27.62,3.98,12.63-2.24,21.25-3.47,32.03-1.74,15.28,3.12,13.09-13.72,23.58-24.2,15.07-41.65,38.65-61.69,51.42-11.12,7.08-16.81,3.05-18.1-8.3-.72-6.33-.76-13.9-.81-20.75-.13-19.9,2.4-17.01,19.79-30.74,9.61-7.59,15.76-16.77,20.24-27.15,6.41-2.62,12.46-6.29,17.94-10.59,10.21-8.04,14.97-18.79,30.46-23.73-12.64.72-22,8.98-29.31,16.6-4.97,5.17-9.31,7.99-15.94,9.51,1.04-3.04,1.98-6.16,2.87-9.36,2.6-9.35.24-20.17,6.91-32.67-11.98,9.93-7.42,22.5-11.51,31.53-7.13,15.74-15.68,29.48-28.87,37.11-11.14,6.44-13.06,12.57-16.54,1.93-1.63-5-2.77-19.35-2.41-34.48,1.35-9.89,2.03-11.07,7.12-20.38,3.33-6.09,4.37-12.36,4.2-18.93,2.84-2.73,5.22-5.97,7.12-9.43,3.55-6.46,3.43-13.3,10.64-19.15-6.71,2.97-9.74,9.38-11.81,15.02-1.41,3.84-3.07,6.25-6.3,8.43-.2-1.87-.47-3.77-.79-5.69-.93-5.63-4.95-11.05-4.46-19.23-4.03,7.85,1.62,13.78,1.66,19.54.07,10.04-1.13,19.27-6.41,26.12-1.44,1.87-2.79,3.7-4.05,5.5-3.41,3.58-5.33,6.76-6.29,11.34-1.24-1.78-2.58-3.58-4-5.43-5.28-6.85-6.48-16.09-6.41-26.12.04-5.76,5.69-11.69,1.66-19.54.49,8.18-3.52,13.6-4.46,19.23-.32,1.92-.59,3.82-.79,5.69-3.23-2.18-4.89-4.6-6.3-8.43-2.07-5.64-5.1-12.06-11.81-15.02,7.21,5.85,7.1,12.68,10.64,19.14,1.9,3.46,4.28,6.7,7.12,9.43-.17,6.57.87,12.84,4.2,18.93,1.72,3.15,6.49,10.39,6.34,14.67,1.12,10.86.96,19.28-.22,26.77-2.17,13.77-.41,12.45-18.39,2.06-13.2-7.63-21.75-21.37-28.88-37.11-4.09-9.03.46-21.6-11.51-31.53,6.67,12.5,4.31,23.32,6.91,32.67.89,3.2,1.83,6.32,2.87,9.36-6.62-1.52-10.96-4.34-15.93-9.51-7.32-7.62-16.68-15.88-29.31-16.6,15.5,4.94,20.25,15.69,30.46,23.73,5.47,4.3,11.52,7.98,17.93,10.6,4.48,10.37,10.63,19.56,20.24,27.15,12.63,9.97,19.94,11.5,20.65,26.98.41,8.93.2,16.13-.44,21.8-1.58,13.91-10.29,17.52-22.81,8.68-18.61-13.15-35.41-34.89-58.2-49.07-16.85-10.48-11.98-8.3-13.72-23.58-1.23-10.78-7.45-19.4-3.47-32.03-5.91,8.6-4.06,18.94-1.68,27.62,1.34,4.87,1.59,8.64.41,12.68-.59-.66-1.18-1.33-1.75-2.02-8.14-9.69-8.22-17.77-24.53-26.71,15.41,14.94,11.3,20.65,20.93,33.1,4.28,5.53,7.67,10.29,12.48,14.93-4.17-.93-8.01-2.72-12.41-5.47-10.14-6.35-22.66-12.88-36.39-10.54,18.07,1.47,26.42,11.8,39.79,17.88,5.98,2.72,12.26,4.87,18.62,6.22,14.05,11.7,28.02,25.91,31.58,34.54-10.68,2.58-32.24,3.81-49.85-4.13-5.17-2.33-11.67-3.8-15.85-7.08-8.38-6.59-15.31-20.09-28.48-19.97,8.4,3.5,14.6,11.24,20.07,19.14,4.47,6.46,12.7,11.86,22.11,17.02-3.29,1.1-9.63,3.18-13.03,2.98-5.16-.31-9.62-4.25-13.59-4.82-9.49-1.35-24.84-4.56-30.16,3.7,8.6-3.97,17.03-2.54,26.22.52,6.49,2.16,10.59,5.66,15.38,5.91,12.59.66,10.18-1.06,24.36-1.55-3.25,3.39-8.87,9.06-15.52,10.95-9.23,2.62-16.08,1.03-23.71,4.54-12.51,5.75-19.58,8.85-21.61,16.82,2.92-5.8,22.77-14.27,30.79-14.49,8.19-.23,17.38,1.18,27.69-5.68,9.21-6.12,27-8.52,34.6-7.71,14.26,1.53,21.84.15,28.43,3.08,23.61,10.48,22.76,27.53,25.19,47.6h41Z"/>
  <path class="st0" d="M4.76,252.38h401.82v5.4H4.76v-5.4Z"/>
  <path class="st1" d="M37.58,234.02c-.38,8.14-8.98,11.39-16.67,8.34,5.56-2.78,9.43-14.25,16.67-8.34"/>
  <path class="st1" d="M41.73,213.48c-6.76-2.32-12.75,3.64-13.27,10.91,4.42-3.64,15.26-3.09,13.27-10.91"/>
  <path class="st1" d="M25.32,206.98c-5.3-5.51-14.73-2.49-19.52,4.43,6.51-1.48,16.87,4.22,19.52-4.43"/>
  <path class="st1" d="M21.39,219.23c-8.07-.68-12.54,7.37-10.68,15.34,3.56-5.11,15.43-7.44,10.68-15.34"/>
</svg>