<?xml version="1.0" encoding="UTF-8"?>
<svg id="Layer_1" data-name="Layer 1" xmlns="http://www.w3.org/2000/svg" viewBox="0 0 200 200">
  <defs>
    <style>
      .cls-1 {
        fill: #fff;
      }
    </style>
  </defs>
  <g id="g1362">
    <g id="g1364">
      <g id="g1366">
        <g id="g1372">
          <g id="path1374">
            <path class="cls-1" d="M193.31,129.47H6.73c-1.56,0-2.82-1.26-2.82-2.82s1.26-2.82,2.82-2.82h186.58c1.55,0,2.82,1.26,2.82,2.82s-1.26,2.82-2.82,2.82Z"/>
          </g>
        </g>
        <g id="g1376">
          <g id="path1378">
            <path class="cls-1" d="M7.6,111.77c-1.35,0-2.55-.98-2.77-2.36-2.95-17.94,1.26-35.95,11.86-50.73,10.6-14.77,26.32-24.53,44.26-27.48,17.94-2.95,35.95,1.26,50.73,11.86,14.52,10.42,24.2,25.79,27.33,43.35.07.3.13.6.17.9.25,1.53-.78,2.98-2.32,3.23h-.02c-.74.13-1.49-.05-2.1-.48s-1.02-1.09-1.14-1.83c-.04-.23-.08-.47-.12-.7-.56-2.4-1.96-4.48-3.98-5.93-2.21-1.59-4.91-2.22-7.6-1.78-2.69.44-5.04,1.9-6.63,4.11-1.59,2.21-2.22,4.91-1.78,7.6.03.15.04.31.04.46,0,1.35-.98,2.55-2.36,2.78-1.54.25-2.98-.79-3.23-2.32-.91-5.55-6.17-9.32-11.71-8.4-5.55.91-9.32,6.17-8.4,11.71.03.15.04.31.04.46,0,1.35-.98,2.55-2.36,2.78-1.53.25-2.98-.79-3.24-2.32-.91-5.55-6.16-9.32-11.71-8.4-5.55.91-9.32,6.17-8.4,11.71.03.15.04.31.04.46,0,1.35-.98,2.55-2.36,2.78-1.53.25-2.98-.79-3.24-2.32-.44-2.69-1.9-5.04-4.11-6.63-2.21-1.59-4.91-2.22-7.6-1.78-5.55.91-9.32,6.16-8.4,11.71.03.15.04.31.04.46,0,1.35-.98,2.55-2.36,2.78-1.53.25-2.98-.79-3.24-2.32-.91-5.55-6.16-9.32-11.71-8.4-2.69.44-5.04,1.9-6.63,4.11-1.59,2.21-2.22,4.91-1.78,7.6.12.74-.06,1.49-.49,2.1-.44.61-1.09,1.02-1.83,1.14l-.44.07c-.15.03-.31.04-.46.04ZM20.91,90.94c3.28,0,6.47,1.02,9.19,2.97.78.56,1.5,1.18,2.15,1.85,2.15-4.52,6.42-7.96,11.72-8.83,4.17-.69,8.36.29,11.79,2.76.78.56,1.5,1.18,2.15,1.85,2.15-4.52,6.42-7.96,11.72-8.83,5.31-.87,10.45,1.02,13.94,4.62,2.15-4.53,6.42-7.97,11.73-8.84,5.31-.87,10.45,1.02,13.94,4.61.4-.85.89-1.67,1.45-2.45,2.46-3.43,6.12-5.7,10.29-6.39,3.13-.51,6.27-.09,9.09,1.19-10.55-26.77-38.71-43.56-68.22-38.7-29.64,4.87-51.01,30-52.25,58.9,2.33-2.38,5.35-3.95,8.7-4.5.87-.14,1.74-.21,2.6-.21Z"/>
          </g>
        </g>
        <g id="g1380">
          <g id="path1382">
            <path class="cls-1" d="M80.75,154.52c-1.35,0-2.55-.98-2.77-2.36l-10.88-66.18c-.25-1.53.79-2.98,2.32-3.24,1.53-.25,2.98.79,3.24,2.32l10.88,66.18c.25,1.53-.79,2.98-2.32,3.23-.15.03-.31.04-.46.04Z"/>
          </g>
        </g>
        <g id="g1384">
          <g id="path1386">
            <path class="cls-1" d="M33.71,107.48c-1.35,0-2.55-.98-2.77-2.36-.09-.57-.24-1.15-.44-1.72-.06-.17-.1-.35-.13-.53-1.5-10.45-1.51-20.62-.02-30.23.24-1.54,1.68-2.59,3.21-2.35,1.54.24,2.59,1.68,2.35,3.21-.91,5.88-1.22,12-.94,18.28,2.31-2.48,5.42-4.25,9.02-4.84,4.17-.69,8.36.29,11.79,2.76.78.56,1.5,1.18,2.15,1.85,2.15-4.52,6.42-7.96,11.72-8.83,4.17-.69,8.36.29,11.79,2.76.78.56,1.5,1.18,2.15,1.85,2.15-4.52,6.42-7.96,11.72-8.83,3.35-.55,6.67,0,9.55,1.42-3.51-11.98-8.99-22.55-15.88-30.43-8.46-9.68-18.08-14.21-27.11-12.73,0,0,0,0,0,0,0,0,0,0-.01,0-9.7,1.6-17.99,10.22-22.74,23.66-.52,1.47-2.13,2.23-3.59,1.72-1.47-.52-2.24-2.13-1.72-3.59,2.64-7.47,6.25-13.63,10.73-18.31,4.78-4.99,10.3-8.03,16.4-9.04,0,0,0,0,.01,0,0,0,0,0,.01,0,22.29-3.65,45.07,21.74,51.86,57.81.27,1.44-.6,2.84-2.01,3.23-1.41.39-2.88-.36-3.39-1.72-1.7-4.54-6.41-7.26-11.19-6.47-5.55.91-9.32,6.17-8.4,11.71.03.15.04.31.04.46,0,1.35-.98,2.55-2.36,2.78-1.53.25-2.98-.79-3.24-2.32-.44-2.69-1.9-5.04-4.11-6.63-2.21-1.59-4.91-2.22-7.6-1.78-5.55.91-9.32,6.16-8.4,11.71.03.15.04.31.04.46,0,1.35-.98,2.55-2.36,2.78-1.54.25-2.98-.79-3.24-2.32-.44-2.69-1.9-5.04-4.11-6.63-2.21-1.59-4.91-2.22-7.6-1.78-5.55.91-9.32,6.17-8.4,11.71.25,1.53-.79,2.98-2.32,3.23-.15.03-.31.04-.46.04Z"/>
          </g>
        </g>
        <g id="g1388">
          <g id="path1390">
            <path class="cls-1" d="M59.22,101.85c-1.37,0-2.56-.99-2.78-2.37-2.73-17.05-3.98-33.28-3.52-45.69.54-14.5,3.15-21.69,8.22-22.61.02,0,.04,0,.07-.01l.12-.02s.03,0,.05,0c4.29-.59,7.42,3.93,8.44,5.41,2.16,3.12,4.37,7.65,6.56,13.44,4.41,11.62,8.42,27.4,11.29,44.42.02.1.03.2.03.3.02.35.06.7.12,1.05,0,0,0,0,0,0,.25,1.53-.79,2.98-2.32,3.24-1.53.25-2.98-.79-3.24-2.32h0c-.44-2.69-1.9-5.04-4.11-6.63-2.21-1.59-4.91-2.22-7.6-1.78-5.15.85-8.81,5.41-8.52,10.61.08,1.5-1.02,2.8-2.51,2.96-.1.01-.2.02-.3.02ZM62.15,36.72c-.81.36-3.22,4.43-3.62,18.17-.27,9.24.41,20.63,1.93,32.84,2.33-2.58,5.52-4.4,9.19-5.01,3.65-.6,7.32.08,10.48,1.91-2.47-12.09-5.47-23.14-8.7-31.83-4.78-12.88-8.37-15.99-9.28-16.07Z"/>
          </g>
        </g>
        <g id="g1392">
          <g id="path1394">
            <path class="cls-1" d="M136.37,90.6c-.58,0-1.16-.18-1.64-.53-.61-.44-1.02-1.1-1.14-1.83-.03-.17-.06-.34-.09-.51l-.05-.29c-.27-1.5.71-2.94,2.21-3.25,1.5-.31,2.96.64,3.31,2.12.09.38.15.7.2,1.01.25,1.53-.78,2.98-2.32,3.24h-.02c-.15.03-.31.04-.46.04Z"/>
          </g>
        </g>
        <g id="g1396">
          <g id="path1398">
            <path class="cls-1" d="M164.92,50.69c-8.6,0-15.59-6.99-15.59-15.59s6.99-15.59,15.59-15.59,15.59,6.99,15.59,15.59-7,15.59-15.59,15.59ZM164.92,25.14c-5.49,0-9.96,4.47-9.96,9.96s4.47,9.96,9.96,9.96,9.96-4.47,9.96-9.96-4.47-9.96-9.96-9.96Z"/>
          </g>
        </g>
        <g id="g1400">
          <g id="path1402">
            <path class="cls-1" d="M164.92,16.19c-1.55,0-2.82-1.26-2.82-2.82v-6.67c0-1.56,1.26-2.82,2.82-2.82s2.82,1.26,2.82,2.82v6.67c0,1.56-1.26,2.82-2.82,2.82Z"/>
          </g>
        </g>
        <g id="g1404">
          <g id="path1406">
            <path class="cls-1" d="M164.92,66.3c-1.55,0-2.82-1.26-2.82-2.82v-6.67c0-1.56,1.26-2.82,2.82-2.82s2.82,1.26,2.82,2.82v6.67c0,1.56-1.26,2.82-2.82,2.82Z"/>
          </g>
        </g>
        <g id="g1408">
          <g id="path1410">
            <path class="cls-1" d="M180.28,22.55c-.72,0-1.44-.27-1.99-.82-1.1-1.1-1.1-2.88,0-3.98l4.71-4.71c1.1-1.1,2.88-1.1,3.98,0,1.1,1.1,1.1,2.88,0,3.98l-4.71,4.71c-.55.55-1.27.82-1.99.82Z"/>
          </g>
        </g>
        <g id="g1412">
          <g id="path1414">
            <path class="cls-1" d="M144.85,57.99c-.72,0-1.44-.27-1.99-.82-1.1-1.1-1.1-2.88,0-3.98l4.71-4.71c1.1-1.1,2.88-1.1,3.98,0,1.1,1.1,1.1,2.88,0,3.98l-4.71,4.71c-.55.55-1.27.82-1.99.82Z"/>
          </g>
        </g>
        <g id="g1416">
          <g id="path1418">
            <path class="cls-1" d="M193.31,37.91h-6.67c-1.55,0-2.82-1.26-2.82-2.82s1.26-2.82,2.82-2.82h6.67c1.55,0,2.82,1.26,2.82,2.82s-1.26,2.82-2.82,2.82Z"/>
          </g>
        </g>
        <g id="g1420">
          <g id="path1422">
            <path class="cls-1" d="M143.2,37.91h-6.67c-1.55,0-2.82-1.26-2.82-2.82s1.26-2.82,2.82-2.82h6.67c1.55,0,2.82,1.26,2.82,2.82s-1.26,2.82-2.82,2.82Z"/>
          </g>
        </g>
        <g id="g1424">
          <g id="path1426">
            <path class="cls-1" d="M184.99,57.99c-.72,0-1.44-.27-1.99-.82l-4.71-4.71c-1.1-1.1-1.1-2.88,0-3.98,1.1-1.1,2.88-1.1,3.98,0l4.71,4.71c1.1,1.1,1.1,2.88,0,3.98-.55.55-1.27.82-1.99.82Z"/>
          </g>
        </g>
        <g id="g1428">
          <g id="path1430">
            <path class="cls-1" d="M149.56,22.55c-.72,0-1.44-.27-1.99-.82l-4.71-4.71c-1.1-1.1-1.1-2.88,0-3.98,1.1-1.1,2.88-1.1,3.98,0l4.71,4.71c1.1,1.1,1.1,2.88,0,3.98-.55.55-1.27.82-1.99.82Z"/>
          </g>
        </g>
        <g id="g1432">
          <g id="path1434">
            <path class="cls-1" d="M16.77,169.32c3.62,0,3.63-5.63,0-5.63s-3.63,5.63,0,5.63"/>
          </g>
        </g>
        <g id="g1436">
          <g id="path1438">
            <path class="cls-1" d="M55.65,185.03c3.62,0,3.63-5.63,0-5.63s-3.63,5.63,0,5.63"/>
          </g>
        </g>
        <g id="g1440">
          <g id="path1442">
            <path class="cls-1" d="M65.45,163.74c3.62,0,3.63-5.63,0-5.63s-3.63,5.63,0,5.63"/>
          </g>
        </g>
        <g id="g1444">
          <g id="path1446">
            <path class="cls-1" d="M140.07,196.11c3.62,0,3.63-5.63,0-5.63s-3.63,5.63,0,5.63"/>
          </g>
        </g>
        <g id="g1448">
          <g id="path1450">
            <path class="cls-1" d="M173.46,180.45c3.62,0,3.63-5.63,0-5.63s-3.63,5.63,0,5.63"/>
          </g>
        </g>
        <g id="g1452">
          <g id="path1454">
            <path class="cls-1" d="M134.76,154.52h-21.67c-1.55,0-2.82-1.26-2.82-2.82s1.26-2.82,2.82-2.82h21.67c1.55,0,2.82,1.26,2.82,2.82s-1.26,2.82-2.82,2.82Z"/>
          </g>
        </g>
        <g id="g1456">
          <g id="path1458">
            <path class="cls-1" d="M177.7,143.01h-48.43c-1.55,0-2.82-1.26-2.82-2.82s1.26-2.82,2.82-2.82h48.43c1.55,0,2.82,1.26,2.82,2.82s-1.26,2.82-2.82,2.82Z"/>
          </g>
        </g>
        <g id="g1460">
          <g id="path1462">
            <path class="cls-1" d="M193.25,171.58c-.64,0-1.28-.22-1.81-.66-9.27-7.78-20.25-9.98-33.56-6.72-1.51.37-3.03-.56-3.4-2.07-.37-1.51.55-3.03,2.07-3.4,6.57-1.61,12.51-2.02,18.17-1.27,7.45.99,14.3,4.07,20.35,9.14,1.19,1,1.35,2.78.35,3.97-.56.66-1.35,1.01-2.16,1.01Z"/>
          </g>
        </g>
        <g id="g1464">
          <g id="path1466">
            <path class="cls-1" d="M119.53,174.44c-.61,0-1.22-.01-1.84-.04-13.9-.69-25.13-8.97-35.99-16.99-7.71-5.69-15.67-11.57-24.42-14.54-16.95-5.76-37.73.78-48.32,15.2-.92,1.25-2.68,1.52-3.94.6-1.25-.92-1.52-2.68-.6-3.94,5.86-7.98,14.6-14.11,24.6-17.26,10.01-3.15,20.68-3.13,30.06.06,9.57,3.25,17.9,9.4,25.95,15.34,10.66,7.86,20.72,15.29,32.92,15.89,7.38.37,14.69-1.97,20.96-4.19,1.47-.52,3.07.25,3.59,1.72.52,1.47-.25,3.07-1.72,3.59-6.28,2.22-13.56,4.55-21.28,4.55Z"/>
          </g>
        </g>
      </g>
    </g>
  </g>
</svg>