<?xml version="1.0" encoding="UTF-8"?>
<svg id="Layer_1" data-name="Layer 1" xmlns="http://www.w3.org/2000/svg" viewBox="0 0 200 200">
  <defs>
    <style>
      .cls-1 {
        fill: #fff;
      }
    </style>
  </defs>
  <path class="cls-1" d="M32.43,46.64h12.91c1.62,0,2.93-1.31,2.93-2.93s-1.31-2.93-2.93-2.93h-12.91c-4.79,0-8.83-3.79-9.01-8.45,0-.15,0-.29,0-.44,0-5.76,4.69-10.44,10.44-10.44,3.17,0,6.13,1.42,8.13,3.89.85,1.05,2.29,1.38,3.52.82,1.13-.52,2.33-.79,3.57-.79,3.01,0,5.82,1.62,7.34,4.22.39.67,1.04,1.16,1.79,1.36.76.2,1.56.08,2.23-.31.96-.57,2.07-.87,3.19-.87,3.05,0,5.65,2.17,6.18,5.17.25,1.4,1.47,2.41,2.88,2.41h9.48c1,0,1.85.77,1.87,1.68,0,.47-.17.9-.49,1.24-.33.33-.76.51-1.22.51h-25.27c-1.62,0-2.93,1.31-2.93,2.93s1.31,2.93,2.93,2.93h25.27c2.05,0,3.97-.81,5.41-2.27s2.21-3.4,2.17-5.45c-.07-4.1-3.54-7.43-7.73-7.43h-7.29c-1.82-4.51-6.23-7.58-11.26-7.58-1.26,0-2.51.2-3.7.58-2.7-3.12-6.67-4.98-10.86-4.98-1.37,0-2.7.19-3.99.56-3.01-2.87-7-4.48-11.23-4.48-8.99,0-16.3,7.31-16.3,16.3,0,.22,0,.44.01.67.31,7.89,6.84,14.08,14.87,14.08h0Z"/>
  <path class="cls-1" d="M197.07,178.55h-1.91c3.03-3.58,4.46-9.14,4.46-17.17,0-10.04-2.18-22.64-5.68-32.88-3.05-8.91-8.32-19.53-16.1-19.53-3.92,0-7.55,2.66-10.83,7.92-2.84-4.54-6.43-7.92-10.82-7.92-4.72,0-9.02,3.85-12.79,11.45-.77-.28-1.59-.43-2.46-.43h-29.2c-1.62,0-2.93,1.31-2.93,2.93s1.31,2.93,2.93,2.93h29.2c.81,0,1.46.66,1.46,1.46v3.31c0,.81-.66,1.46-1.46,1.46H59.05c-.81,0-1.46-.66-1.46-1.46v-3.31c0-.81.66-1.46,1.46-1.46h40.98c1.62,0,2.93-1.31,2.93-2.93s-1.31-2.93-2.93-2.93h-24.29c2.24-5.01,3.42-10.48,3.42-16,0-21.56-17.54-39.1-39.1-39.1S.96,82.42.96,103.98c0,20.44,15.76,37.26,35.76,38.96v16.69c-.62-.08-1.24-.13-1.87-.13-1.11,0-2.21.13-3.27.38-3.41-4.61-8.99-7.32-14.8-7.05-8.9.41-16.16,7.71-16.53,16.61-.13,3.23.65,6.39,2.18,9.15-1.38.24-2.43,1.44-2.43,2.88,0,1.62,1.31,2.93,2.93,2.93h194.14c1.62,0,2.93-1.31,2.93-2.93s-1.31-2.93-2.93-2.93h0ZM59.19,174.28c-.06-.85-.21-1.7-.45-2.52h9.36v6.8h-9.35c.39-1.37.54-2.81.44-4.27ZM122.78,150.04v4.32h-44.27v-4.32h44.27ZM135.19,150.04c-.19,1.46-.34,2.91-.46,4.32h-6.09v-4.32h6.55ZM147.46,160.21c.37,0,.67.3.67.67v4.33c0,.37-.3.67-.67.67H52.54c-.37,0-.67-.3-.67-.67v-4.33c0-.37.3-.67.67-.67h94.91ZM73.95,171.75h53.38v6.8h-53.38v-6.8ZM133.19,171.75h2.34c.77,2.91,1.92,5.13,3.34,6.8h-5.69v-6.8h0ZM170.34,122.95c2.54-5.09,5.34-8.13,7.51-8.13,2.41,0,6.63,4.08,10.56,15.57,3.26,9.53,5.36,21.69,5.36,30.98,0,16.52-5.99,16.52-15.92,16.52-1.22,0-2.5,0-3.77-.05,2.65-3.59,3.91-8.94,3.91-16.47,0-10.04-2.18-22.64-5.68-32.88-.6-1.75-1.29-3.57-2.06-5.37.03-.06.07-.12.1-.18h0ZM156.19,114.82c2.41,0,6.63,4.08,10.56,15.57,3.26,9.53,5.36,21.69,5.36,30.98,0,16.52-5.99,16.52-15.92,16.52-7.88,0-12.38-.3-14.52-6.14h5.79c3.6,0,6.53-2.93,6.53-6.53v-4.33c0-3.6-2.93-6.53-6.53-6.53h-6.84c.13-1.41.29-2.86.49-4.32,3.97-.08,7.17-3.33,7.17-7.31v-3.31c0-1.65-.55-3.17-1.48-4.39.92-1.23,1.48-2.74,1.48-4.39v-3.31c0-.9-.17-1.76-.47-2.56.07-.12.14-.24.2-.37,2.74-5.99,5.8-9.56,8.19-9.56h0ZM140.95,137.94c.81,0,1.46.66,1.46,1.46v3.31c0,.81-.66,1.46-1.46,1.46H59.05c-.81,0-1.46-.66-1.46-1.46v-3.31c0-.81.66-1.46,1.46-1.46h81.9ZM6.82,103.98c0-18.33,14.91-33.24,33.24-33.24s33.24,14.91,33.24,33.24c0,5.5-1.37,10.95-3.96,15.76-.04.08-.08.16-.12.24h-10.17c-4.04,0-7.32,3.28-7.32,7.32v3.31c0,1.49.45,2.88,1.22,4.04-.11.03-.22.07-.33.11-3.21,1.31-6.58,2.09-10.04,2.35v-23.08l10.12-10.12c1.14-1.14,1.14-3,0-4.14-1.14-1.14-3-1.14-4.14,0l-5.98,5.98v-7.65c0-1.62-1.31-2.93-2.93-2.93s-2.93,1.31-2.93,2.93v17.61l-5.64-5.63c-1.14-1.14-3-1.14-4.14,0-1.14,1.14-1.14,3,0,4.14l9.78,9.78v13.05c-16.77-1.68-29.9-15.87-29.9-33.07h0ZM42.58,143c3.12-.2,6.18-.76,9.15-1.69v1.41c0,4.04,3.28,7.32,7.32,7.32h13.6v4.32h-20.11c-3.6,0-6.53,2.93-6.53,6.53v1.89c-.62.04-1.24.12-1.86.26-.5-.44-1.02-.84-1.57-1.21v-18.83h0ZM9.71,178.55c-2.44-2.29-3.75-5.47-3.61-8.86.24-5.9,5.05-10.73,10.95-11,4.5-.21,8.59,2.12,10.71,6.08.72,1.36,2.37,1.92,3.78,1.3,1.05-.47,2.17-.71,3.32-.71,2.4,0,4.67,1.05,6.23,2.89.81.96,2.15,1.29,3.32.83.82-.33,1.69-.48,2.57-.46,1.12,1.84,3.13,3.08,5.43,3.13.55.89.88,1.9.95,2.93.09,1.38-.23,2.72-.94,3.87H9.71Z"/>
  <path class="cls-1" d="M108.99,83.33h29.3c1.62,0,2.93-1.31,2.93-2.93s-1.31-2.93-2.93-2.93h-29.3c-1.94,0-3.53-1.53-3.54-3.4,0,0,0-.04,0-.05,0-4.03,3.28-7.38,7.32-7.47,1.41-.03,2.6-1.06,2.83-2.45,1.19-7.24,7.39-12.49,14.74-12.49s13.59,5.28,14.75,12.56c.25,1.56,1.7,2.64,3.26,2.44.38-.05.69-.07.96-.07,2.64,0,5.12,1.42,6.46,3.71.53.9,1.49,1.45,2.53,1.45h8.03c1.59,0,2.89,1.29,2.89,2.89s-1.29,2.89-2.89,2.89h-16.33c-1.62,0-2.93,1.31-2.93,2.93s1.31,2.93,2.93,2.93h16.33c4.82,0,8.75-3.92,8.75-8.75s-3.92-8.75-8.75-8.75h-6.49c-2.3-2.96-5.78-4.83-9.53-5.12-2.54-8.81-10.57-14.97-19.97-14.97s-17.57,6.27-20.04,15.2c-6.08,1.23-10.71,6.67-10.71,13.06v.09c.04,5.08,4.25,9.22,9.4,9.22h0Z"/>
</svg>