<?xml version="1.0" encoding="UTF-8"?>
<svg id="Layer_1" data-name="Layer 1" xmlns="http://www.w3.org/2000/svg" viewBox="0 0 200 200">
  <defs>
    <style>
      .cls-1 {
        fill: #fff;
      }
    </style>
  </defs>
  <g id="Outline">
    <path class="cls-1" d="M50.7,113.15H14.55c-7.26,0-13.14-5.89-13.15-13.15V14.55c0-7.26,5.89-13.14,13.15-13.15h85.45c7.26,0,13.14,5.89,13.15,13.15v55.87h-6.57V14.55c0-3.63-2.94-6.57-6.57-6.57H14.55c-3.63,0-6.57,2.94-6.57,6.57v85.45c0,3.63,2.94,6.57,6.57,6.57h36.15v6.57Z"/>
    <path class="cls-1" d="M44.13,100h-19.72c-1.82,0-3.29-1.47-3.29-3.29V17.84c0-1.82,1.47-3.29,3.29-3.29h39.44c16.34,0,29.58,13.24,29.58,29.58s-13.24,29.58-29.58,29.58h-16.43v23.01c0,1.82-1.47,3.29-3.29,3.29ZM27.7,93.43h13.15v-23.01c0-1.82,1.47-3.29,3.29-3.29h19.72c12.71,0,23.01-10.3,23.01-23.01s-10.3-23.01-23.01-23.01H27.7v72.3ZM63.85,53.99h-19.72c-1.82,0-3.29-1.47-3.29-3.29v-13.15c0-1.82,1.47-3.29,3.29-3.29h19.72c5.45,0,9.86,4.41,9.86,9.86s-4.41,9.86-9.86,9.86ZM47.42,47.42h16.43c1.82,0,3.29-1.47,3.29-3.29s-1.47-3.29-3.29-3.29h-16.43v6.57Z"/>
    <path class="cls-1" d="M194.35,130.54c-2.61-2.62-6.12-4.14-9.81-4.24l-13.44-40.32c-1.79-5.37-6.81-8.99-12.47-8.99h-77.81c-5.66,0-10.69,3.62-12.47,8.99l-13.44,40.32c-7.83.24-14.06,6.66-14.06,14.5v24.93c0,7.26,5.89,13.14,13.15,13.15h23.01v13.15h-19.72v-6.57h-6.57v6.57c0,3.63,2.94,6.57,6.57,6.57h19.72c3.63,0,6.57-2.94,6.57-6.57v-13.15h72.3v13.15c0,3.63,2.94,6.57,6.57,6.57h19.72c3.63,0,6.57-2.94,6.57-6.57v-13.56c5.8-1.51,9.85-6.74,9.86-12.73v-24.93c.01-3.85-1.52-7.54-4.25-10.26h0ZM80.82,83.57h77.81c2.83,0,5.34,1.81,6.24,4.49l.69,2.08h-91.67l.69-2.08c.89-2.69,3.41-4.5,6.24-4.49ZM71.7,96.71h96.05l9.86,29.58H61.84l9.86-29.58ZM182.16,192.02h-19.72v-13.15h19.72v13.15s0,0,0,0ZM192.02,165.73c0,3.63-2.94,6.57-6.57,6.57H53.99c-3.63,0-6.57-2.94-6.57-6.57v-24.93c0-4.38,3.55-7.93,7.93-7.93h128.74c4.38,0,7.93,3.55,7.93,7.93v24.93Z"/>
    <path class="cls-1" d="M67.14,139.44c-7.26,0-13.15,5.89-13.15,13.15s5.89,13.15,13.15,13.15,13.15-5.89,13.15-13.15c0-7.26-5.89-13.14-13.15-13.15ZM67.14,159.16c-3.63,0-6.57-2.94-6.57-6.57s2.94-6.57,6.57-6.57,6.57,2.94,6.57,6.57c0,3.63-2.94,6.57-6.57,6.57Z"/>
    <path class="cls-1" d="M172.3,139.44c-7.26,0-13.15,5.89-13.15,13.15s5.89,13.15,13.15,13.15,13.15-5.89,13.15-13.15c0-7.26-5.89-13.14-13.15-13.15ZM172.3,159.16c-3.63,0-6.57-2.94-6.57-6.57s2.94-6.57,6.57-6.57,6.57,2.94,6.57,6.57c0,3.63-2.94,6.57-6.57,6.57Z"/>
    <path class="cls-1" d="M86.85,142.72h65.73v6.57h-65.73v-6.57Z"/>
    <path class="cls-1" d="M86.85,155.87h65.73v6.57h-65.73v-6.57Z"/>
  </g>
</svg>