<?xml version="1.0" encoding="UTF-8"?>
<svg id="Layer_1" data-name="Layer 1" xmlns="http://www.w3.org/2000/svg" viewBox="0 0 200 200">
  <defs>
    <style>
      .cls-1 {
        fill: #fff;
      }
    </style>
  </defs>
  <path class="cls-1" d="M182.46,49.19c7.22-7.22,11.87-16.37,13.45-26.47.81-5.21-.86-10.32-4.58-14.05-3.73-3.72-8.84-5.39-14.05-4.58-10.1,1.57-19.25,6.23-26.47,13.45l-22.34,22.34-13.38-2.91c2.29-3.46,1.9-8.18-1.14-11.23-3.48-3.48-9.15-3.48-12.63,0l-6.76,6.76-15.85-3.45,1.1-1.1c3.48-3.48,3.48-9.15,0-12.63-3.48-3.48-9.15-3.48-12.63,0l-9.21,9.21-32.81-7.15c-2.58-.57-5.25.21-7.12,2.09l-6.6,6.6c-1.74,1.74-2.53,4.13-2.19,6.56.34,2.43,1.77,4.5,3.92,5.69l77.04,42.56-39,42.67-39.61,2.1-6.13,6.13c-1.32,1.32-1.87,3.19-1.48,5.01.39,1.82,1.66,3.31,3.4,3.97l37.5,14.32,14.32,37.5c.67,1.74,2.15,3.01,3.97,3.4.38.08.77.12,1.15.12,1.44,0,2.82-.56,3.86-1.6l6.13-6.13,2.1-39.61,42.67-39,42.53,77.01c1.19,2.15,3.26,3.58,5.69,3.92,2.44.34,4.82-.46,6.56-2.19l6.6-6.6c1.87-1.87,2.65-4.53,2.09-7.12l-7.13-32.77,9.23-9.22c3.48-3.48,3.48-9.15,0-12.63s-9.15-3.48-12.63,0l-1.11,1.11-3.45-15.85,6.76-6.76c3.48-3.48,3.48-9.15,0-12.63-3.05-3.05-7.77-3.43-11.23-1.14l-2.91-13.38,22.34-22.34h0ZM106.8,31.21c.47-.46,1.22-.46,1.68,0,.46.46.46,1.22,0,1.68l-2.16,2.16-2.76-.6,3.24-3.24h0ZM72.67,20.79c.47-.47,1.22-.46,1.69,0s.46,1.22,0,1.68l-4.62,4.62-2.76-.6,5.69-5.69h0ZM168.42,183.04l-42.53-77.01c-1.15-2.09-3.17-3.51-5.52-3.9-2.36-.39-4.72.31-6.48,1.92l-45.01,41.13-2.11,39.81-1.56,1.56-13.07-34.23c-.78-2.06-2.41-3.69-4.47-4.47l-34.23-13.07,1.56-1.56,39.81-2.11,41.13-45.01c1.61-1.76,2.31-4.13,1.92-6.48-.39-2.35-1.81-4.37-3.9-5.52L16.93,31.55l6.6-6.6,103.28,22.5c2.58.56,5.25-.22,7.12-2.09l22.34-22.34c6.05-6.05,13.73-9.95,22.19-11.27,2.74-.43,5.42.45,7.38,2.41,1.96,1.96,2.83,4.65,2.41,7.38-1.32,8.46-5.21,16.13-11.27,22.19l-22.34,22.34c-1.87,1.87-2.65,4.53-2.08,7.12l22.47,103.26-6.6,6.6ZM177.52,125.65c.47-.46,1.22-.46,1.69,0,.46.46.46,1.22,0,1.68l-5.71,5.71-.6-2.76,4.63-4.63h0ZM167.1,91.52c.46-.46,1.21-.46,1.68,0,.46.46.46,1.22,0,1.68l-3.25,3.25-.6-2.76,2.17-2.17h0Z"/>
</svg>