<?xml version="1.0" encoding="UTF-8"?>
<svg id="Layer_1" data-name="Layer 1" xmlns="http://www.w3.org/2000/svg" viewBox="0 0 200 200">
  <defs>
    <style>
      .cls-1 {
        fill: #fff;
      }
    </style>
  </defs>
  <path class="cls-1" d="M197.82,47.85c-1.7-1.86-4.13-2.93-6.65-2.93h-2.68c-7.02,0-12.77,5.27-13.38,12.26l-2.89,32.98c-.26,2.92-2.66,5.13-5.6,5.13h-25.06c-8.03,0-14.56,6.53-14.56,14.56v1.45c0,4.85,3.95,8.8,8.8,8.8h5.37l-5.29,17.27s0,.03-.01.04l-4.04,13.2c-.47,1.55.4,3.19,1.95,3.67.29.09.58.13.86.13,1.26,0,2.42-.81,2.81-2.08l3.41-11.13h40.26l3.41,11.13c.39,1.26,1.55,2.08,2.81,2.08.28,0,.57-.04.86-.13,1.55-.47,2.42-2.12,1.95-3.67l-9.6-31.34c1.68-.48,3.31-1.16,4.84-2.03,1.41-.81,1.89-2.6,1.09-4.01s-2.6-1.89-4.01-1.09c-2.37,1.36-5.06,2.07-7.8,2.07h-38.85c-1.61,0-2.93-1.31-2.93-2.93v-1.45c0-4.79,3.9-8.69,8.69-8.69h25.06c6,0,10.92-4.51,11.45-10.49l2.89-32.98c.35-3.94,3.58-6.9,7.54-6.9h2.68c.89,0,1.72.36,2.32,1.02.6.66.89,1.51.81,2.4l-4.01,45.68c-.1,1.13-.32,2.24-.65,3.31-.48,1.55.38,3.19,1.93,3.68,1.55.48,3.19-.38,3.68-1.93.46-1.47.76-3,.9-4.55l4.01-45.68c.22-2.51-.63-5.02-2.34-6.88ZM147.31,120.1h27.34l4.66,15.23h-36.66l4.66-15.23Z"/>
  <path class="cls-1" d="M58.44,95.3h-25.06c-2.93,0-5.34-2.2-5.6-5.13l-2.89-32.98c-.61-6.99-6.37-12.26-13.38-12.26h-2.68c-2.52,0-4.95,1.07-6.65,2.93-1.7,1.86-2.55,4.37-2.33,6.88l4.01,45.68c.47,5.39,2.93,10.37,6.92,14.03,2.51,2.3,5.48,3.94,8.69,4.85l-9.59,31.33c-.47,1.55.4,3.19,1.95,3.67.29.09.58.13.86.13,1.26,0,2.42-.81,2.81-2.08l3.41-11.13h40.26l3.41,11.13c.39,1.26,1.55,2.08,2.81,2.08.28,0,.57-.04.86-.13,1.55-.47,2.42-2.12,1.95-3.67l-4.04-13.2s0-.03-.01-.04l-5.29-17.27h5.37c4.85,0,8.8-3.95,8.8-8.8v-1.45c0-8.03-6.53-14.56-14.56-14.56ZM20.69,135.33l4.66-15.23h27.34l4.66,15.23H20.69ZM67.13,111.3c0,1.61-1.31,2.93-2.93,2.93H25.35c-.63,0-1.25-.04-1.85-.11h0c-7.34-.85-13.13-6.68-13.8-14.23l-4.01-45.68c-.08-.89.21-1.74.81-2.4.6-.66,1.43-1.02,2.32-1.02h2.68c3.95,0,7.19,2.97,7.54,6.9l2.89,32.98h0c.52,5.98,5.45,10.48,11.45,10.48h25.06c4.79,0,8.69,3.9,8.69,8.69v1.45h0Z"/>
  <path class="cls-1" d="M122.29,144.73c-1.21-4.66-5.42-7.91-10.23-7.91h-1.82v-53.44h36.14c2.08,0,4.03-.93,5.35-2.54,1.32-1.61,1.83-3.71,1.41-5.75-1.26-6.14-6.73-10.59-12.99-10.59h-61.03c-1.62,0-2.94,1.31-2.94,2.94s1.31,2.94,2.94,2.94h61.03c3.49,0,6.54,2.48,7.24,5.9.09.42-.1.72-.21.86-.12.14-.37.38-.8.38H53.61c-.42,0-.68-.24-.8-.38-.12-.14-.3-.44-.21-.86.7-3.42,3.75-5.91,7.24-5.91h5.51c1.62,0,2.94-1.31,2.94-2.94s-1.31-2.94-2.94-2.94h-5.51c-6.27,0-11.73,4.45-12.99,10.59-.42,2.04.1,4.14,1.41,5.75,1.32,1.61,3.26,2.54,5.35,2.54h36.14v53.44h-1.82c-4.81,0-9.02,3.25-10.23,7.91l-.69,2.65c-.44,1.7-.08,3.46.99,4.85,1.07,1.39,2.69,2.18,4.45,2.18h35.08c1.75,0,3.37-.8,4.45-2.18,1.07-1.39,1.43-3.15.99-4.85l-.69-2.65ZM95.63,83.39h8.75v53.44h-8.75v-53.44ZM82.79,148.54l.61-2.33c.54-2.07,2.41-3.51,4.55-3.51h24.12c2.14,0,4.01,1.45,4.55,3.51l.61,2.33h-34.43Z"/>
</svg>