
<svg id="Layer_1" data-name="Layer 1" xmlns="http://www.w3.org/2000/svg" viewBox="0 0 200 200">
  <defs>
    <style>
      .cls-1 {
        fill: #fff;
      }
    </style>
  </defs>
  <g id="g2853">
    <g id="g2855">
      <g id="g2857">
        <g id="g2863">
          <g id="path2865">
            <path class="cls-1" d="M190.08,137.86h-113.43c-4.03,0-7.3-3.28-7.3-7.3v-3.9c0-15.29,7.05-28.11,20.38-37.07,11.56-7.77,27.06-12.05,43.64-12.05s32.08,4.28,43.64,12.05c13.33,8.96,20.38,21.78,20.38,37.07v3.9c0,4.03-3.28,7.3-7.3,7.3ZM133.37,83.24c-15.46,0-29.83,3.94-40.46,11.08-8.14,5.48-17.85,15.53-17.85,32.33v3.9c0,.88.72,1.6,1.6,1.6h113.43c.88,0,1.6-.72,1.6-1.6v-3.9c0-16.8-9.71-26.86-17.85-32.33-10.63-7.15-25-11.08-40.46-11.08Z"/>
          </g>
        </g>
        <g id="g2867">
          <g id="path2869">
            <path class="cls-1" d="M27.61,178.21c-1.18,0-2.29-.74-2.7-1.92-.52-1.49.27-3.11,1.76-3.63l47.72-16.53c1.49-.51,3.11.27,3.63,1.76.52,1.49-.27,3.11-1.76,3.63l-47.72,16.53c-.31.11-.62.16-.93.16ZM20.84,128.52c-1.19,0-2.3-.75-2.7-1.95-.5-1.49.3-3.11,1.8-3.61l56.45-18.93c1.49-.5,3.11.3,3.61,1.8.5,1.49-.3,3.11-1.8,3.61l-56.45,18.93c-.3.1-.61.15-.91.15Z"/>
          </g>
        </g>
        <g id="g2871">
          <g id="path2873">
            <path class="cls-1" d="M178.23,123.62c-.73,0-1.46-.28-2.02-.84l-.02-.02c-1.11-1.11-1.11-2.92,0-4.03,1.11-1.11,2.92-1.11,4.03,0l.02.02c1.11,1.11,1.11,2.92,0,4.03-.56.56-1.29.84-2.02.84Z"/>
          </g>
        </g>
        <g id="g2875">
          <g id="path2877">
            <path class="cls-1" d="M160.29,123.62c-.73,0-1.46-.28-2.02-.84l-.02-.02c-1.11-1.11-1.11-2.92,0-4.03,1.11-1.11,2.92-1.11,4.03,0l.02.02c1.11,1.11,1.11,2.92,0,4.03-.56.56-1.29.84-2.02.84Z"/>
          </g>
        </g>
        <g id="g2879">
          <g id="path2881">
            <path class="cls-1" d="M142.35,123.62c-.73,0-1.46-.28-2.02-.84l-.02-.02c-1.11-1.11-1.11-2.92,0-4.03,1.11-1.11,2.92-1.11,4.03,0l.02.02c1.11,1.11,1.11,2.92,0,4.03-.56.56-1.29.84-2.02.84Z"/>
          </g>
        </g>
        <g id="g2883">
          <g id="path2885">
            <path class="cls-1" d="M124.41,123.62c-.73,0-1.46-.28-2.02-.84l-.02-.02c-1.11-1.11-1.11-2.92,0-4.03,1.11-1.11,2.92-1.11,4.03,0l.02.02c1.11,1.11,1.11,2.92,0,4.03-.56.56-1.29.84-2.02.84Z"/>
          </g>
        </g>
        <g id="g2887">
          <g id="path2889">
            <path class="cls-1" d="M106.47,123.62c-.73,0-1.46-.28-2.02-.84l-.02-.02c-1.11-1.11-1.11-2.92,0-4.03,1.11-1.11,2.92-1.11,4.03,0l.02.02c1.11,1.11,1.11,2.92,0,4.03-.56.56-1.29.84-2.02.84Z"/>
          </g>
        </g>
        <g id="g2891">
          <g id="path2893">
            <path class="cls-1" d="M88.53,123.62c-.73,0-1.45-.28-2.01-.83l-.02-.02c-1.12-1.11-1.12-2.92-.01-4.03,1.11-1.12,2.92-1.12,4.03-.01l.02.02c1.12,1.11,1.12,2.92.01,4.03-.56.56-1.29.84-2.02.84Z"/>
          </g>
        </g>
        <g id="g2895">
          <g id="path2897">
            <path class="cls-1" d="M169.27,109.99c-.92,0-1.83-.45-2.38-1.28l-.02-.03c-.87-1.31-.51-3.08.8-3.95,1.31-.87,3.08-.51,3.95.8l.02.03c.87,1.31.51,3.08-.8,3.95-.49.32-1.03.48-1.58.48Z"/>
          </g>
        </g>
        <g id="g2899">
          <g id="path2901">
            <path class="cls-1" d="M151.32,109.99c-.73,0-1.46-.28-2.02-.84l-.03-.03c-1.11-1.11-1.11-2.92,0-4.03,1.11-1.11,2.92-1.11,4.03,0l.03.03c1.11,1.11,1.11,2.92,0,4.03-.56.56-1.29.84-2.02.84Z"/>
          </g>
        </g>
        <g id="g2903">
          <g id="path2905">
            <path class="cls-1" d="M133.35,109.95c-.74,0-1.47-.28-2.03-.85l-.02-.02c-1.11-1.12-1.1-2.93.03-4.03,1.12-1.11,2.93-1.1,4.03.03l.02.02c1.11,1.12,1.1,2.93-.03,4.03-.56.55-1.28.82-2,.82Z"/>
          </g>
        </g>
        <g id="g2907">
          <g id="path2909">
            <path class="cls-1" d="M115.41,109.95c-.74,0-1.47-.28-2.03-.85l-.02-.02c-1.11-1.12-1.1-2.93.03-4.03,1.12-1.11,2.93-1.1,4.03.03l.02.02c1.11,1.12,1.1,2.93-.03,4.03-.56.55-1.28.82-2,.82Z"/>
          </g>
        </g>
        <g id="g2911">
          <g id="path2913">
            <path class="cls-1" d="M97.45,109.93c-.92,0-1.82-.44-2.37-1.26l-.02-.03c-.88-1.31-.53-3.08.77-3.96,1.31-.88,3.08-.53,3.96.77l.02.03c.88,1.31.53,3.08-.77,3.96-.49.33-1.04.49-1.59.49Z"/>
          </g>
        </g>
        <g id="g2915">
          <g id="path2917">
            <path class="cls-1" d="M142.3,96.35c-.55,0-1.1-.16-1.59-.49-1.31-.88-1.65-2.66-.77-3.96l.02-.03c.88-1.31,2.66-1.65,3.96-.77,1.31.88,1.65,2.66.77,3.96l-.02.03c-.55.82-1.45,1.26-2.37,1.26Z"/>
          </g>
        </g>
        <g id="g2919">
          <g id="path2921">
            <path class="cls-1" d="M124.36,96.35c-.55,0-1.12-.16-1.61-.5-1.3-.89-1.63-2.66-.74-3.97l.02-.03c.89-1.3,2.66-1.63,3.97-.74,1.3.89,1.63,2.66.74,3.97l-.02.03c-.55.81-1.45,1.24-2.36,1.24Z"/>
          </g>
        </g>
        <g id="g2923">
          <g id="path2925">
            <path class="cls-1" d="M185.29,197.37h-103.85c-6.67,0-12.09-5.42-12.09-12.09v-7.22c0-2.69,2.19-4.87,4.89-4.87h56.59c1.58,0,2.85,1.28,2.85,2.85s-1.28,2.85-2.85,2.85h-55.77v6.39c0,3.52,2.87,6.39,6.39,6.39h103.85c3.52,0,6.39-2.87,6.39-6.39v-6.39h-47.43c-1.58,0-2.85-1.28-2.85-2.85s1.28-2.85,2.85-2.85h48.25c2.69,0,4.89,2.19,4.89,4.87v7.22c0,6.67-5.42,12.09-12.09,12.09Z"/>
          </g>
        </g>
        <g id="g2927">
          <g id="path2929">
            <path class="cls-1" d="M133.1,65.79h-52.22c-1.58,0-2.85-1.28-2.85-2.85s1.28-2.85,2.85-2.85h52.22c.98,0,1.8-.83,1.8-1.81v-6.54c0-.98-.83-1.82-1.8-1.82H10.13c-.98,0-1.81.83-1.81,1.82v6.54c0,.98.83,1.81,1.81,1.81h57.19c1.58,0,2.85,1.28,2.85,2.85s-1.28,2.85-2.85,2.85H10.13c-4.14,0-7.51-3.37-7.51-7.51v-6.54c0-4.15,3.37-7.52,7.51-7.52h122.97c4.14,0,7.51,3.37,7.51,7.52v6.54c0,4.14-3.37,7.51-7.51,7.51Z"/>
          </g>
        </g>
        <g id="g2931">
          <g id="path2933">
            <path class="cls-1" d="M80.18,49.92c-1.58,0-2.85-1.28-2.85-2.85v-22.56c0-1.3.88-2.43,2.13-2.76l24.82-6.46c1.88-.49,3.01-2.43,2.53-4.31-.49-1.88-2.43-3.02-4.33-2.53l-29.58,7.71c-1.61.42-2.65,1.76-2.65,3.42v27.49c0,1.58-1.28,2.85-2.85,2.85s-2.85-1.28-2.85-2.85v-27.49c0-4.27,2.78-7.86,6.91-8.95l29.59-7.71c4.94-1.27,9.99,1.7,11.28,6.62,1.28,4.93-1.69,9.98-6.61,11.27l-22.69,5.91v20.35c0,1.58-1.28,2.85-2.85,2.85Z"/>
          </g>
        </g>
        <g id="g2935">
          <g id="path2937">
            <path class="cls-1" d="M81.44,197.37h-45.45c-4.86,0-8.77-3.76-9.51-9.15L9.46,63.32c-.21-1.56.88-3,2.44-3.21,1.56-.21,3,.88,3.21,2.44l17.02,124.91c.29,2.1,1.59,4.21,3.85,4.21h45.45c1.58,0,2.85,1.28,2.85,2.85s-1.28,2.85-2.85,2.85ZM128.54,83.38c-.13,0-.26,0-.39-.03-1.56-.21-2.65-1.65-2.44-3.21l2.39-17.59c.21-1.56,1.65-2.65,3.21-2.44,1.56.21,2.65,1.65,2.44,3.21l-2.39,17.59c-.19,1.43-1.42,2.47-2.82,2.47Z"/>
          </g>
        </g>
        <g id="g2939">
          <g id="path2941">
            <path class="cls-1" d="M153.17,153.54c-3.59,0-7.06-1.36-9.91-3.87-2.85,2.5-6.31,3.86-9.9,3.86s-7.04-1.36-9.89-3.87c-2.85,2.51-6.32,3.88-9.9,3.88s-7.11-1.39-9.97-3.93c-4.62,3.48-11,4.27-16.28,1.92-5.9-2.64-9.29-8.65-9.29-16.51,0-1.58,1.28-2.85,2.85-2.85s2.85,1.28,2.85,2.85c0,5.59,2.1,9.6,5.91,11.3,3.6,1.61,8.2.87,11.17-1.8,2.55-2.27,4.59-1.18,5.85.14,1.96,2.06,4.41,3.19,6.9,3.19s4.94-1.13,6.89-3.18c.05-.06.11-.11.16-.16,2.56-2.29,4.6-1.18,5.87.15,1.94,2.04,4.39,3.17,6.88,3.17s4.92-1.1,6.9-3.18c1.26-1.34,3.31-2.45,5.86-.14.05.05.1.1.15.15,1.95,2.05,4.4,3.18,6.9,3.18s4.94-1.13,6.89-3.18c1.26-1.32,3.3-2.41,5.84-.16,2.99,2.69,7.58,3.43,11.18,1.82,3.82-1.7,5.92-5.72,5.92-11.3,0-1.58,1.28-2.85,2.85-2.85s2.85,1.28,2.85,2.85c0,7.86-3.39,13.88-9.3,16.51-5.28,2.35-11.65,1.56-16.27-1.92-2.86,2.54-6.35,3.93-9.97,3.93Z"/>
          </g>
        </g>
        <g id="g2943">
          <g id="path2945">
            <path class="cls-1" d="M184.03,165.82h-101.33c-6.35,0-11.51-5.17-11.51-11.52s5.16-11.51,11.51-11.51h1.48c1.58,0,2.85,1.28,2.85,2.85s-1.28,2.85-2.85,2.85h-1.48c-3.2,0-5.8,2.6-5.8,5.8s2.6,5.82,5.8,5.82h101.33c3.2,0,5.8-2.61,5.8-5.82s-2.6-5.8-5.8-5.8h-1.48c-1.58,0-2.85-1.28-2.85-2.85s1.28-2.85,2.85-2.85h1.48c6.35,0,11.51,5.16,11.51,11.51s-5.16,11.52-11.51,11.52Z"/>
          </g>
        </g>
        <g id="g2947">
          <g id="path2949">
            <path class="cls-1" d="M184.26,178.89c-1.58,0-2.85-1.28-2.85-2.85v-13.07c0-1.58,1.28-2.85,2.85-2.85s2.85,1.28,2.85,2.85v13.07c0,1.58-1.28,2.85-2.85,2.85ZM82.47,178.89c-1.58,0-2.85-1.28-2.85-2.85v-13.07c0-1.58,1.28-2.85,2.85-2.85s2.85,1.28,2.85,2.85v13.07c0,1.58-1.28,2.85-2.85,2.85Z"/>
          </g>
        </g>
      </g>
    </g>
  </g>
</svg>