<?xml version="1.0" encoding="UTF-8"?>
<svg id="Layer_1" data-name="Layer 1" xmlns="http://www.w3.org/2000/svg" viewBox="0 0 200 200">
  <defs>
    <style>
      .cls-1 {
        fill: #fff;
      }
    </style>
  </defs>
  <path class="cls-1" d="M172.35,133.77h-1.06l-11.61-27.08c1.97.86,4.09,1.32,6.24,1.35,1.78,0,3.22-1.44,3.22-3.22v-25.73c0-1.78-1.44-3.22-3.22-3.22-6.87.04-12.95,4.43-15.15,10.93-1.91-2.67-4.85-4.43-8.1-4.86-2.04-.26-4.12-.13-6.11.39h-2.8c-5.44,0-7.85-3.22-11.64-8.46l-1.9-2.67c1.95-.1,3.83-.71,5.47-1.77,2.51-1.82,4.18-4.56,4.66-7.62,2.11-1.22,3.64-3.23,4.25-5.6.28-1.87-.39-3.76-1.77-5.05-1.31-2.25-2.03-4.79-2.09-7.4,1.73-.1,3.06-1.55,3.02-3.28,0-14.21-11.52-25.73-25.73-25.73-.12,0-.24,0-.36,0-13.9.27-25.1,11.48-25.38,25.38-.12,6.89,2.55,13.54,7.4,18.43.71.71,1.46,1.37,2.25,1.99-12.41,3.02-18.94,14.67-22.29,24.76-1.92-1.94-4.54-3.03-7.27-3.02H28.23c-3.49,0-6.73,1.76-8.62,4.7-.97,1.49-.54,3.49.95,4.45,1.49.97,3.49.54,4.45-.95.7-1.09,1.92-1.75,3.22-1.74h5.82v9.65c0,1.78,1.44,3.22,3.22,3.22h16.08c1.78,0,3.22-1.44,3.22-3.22v-9.68h5.82c2.11,0,3.83,1.71,3.83,3.83h0v24.54c-.02,2.1-1.73,3.8-3.83,3.8H28.23c-1.91.05-3.55-1.33-3.83-3.22h6.43c1.78,0,3.22-1.44,3.22-3.22s-1.44-3.22-3.22-3.22h-6.43v-6.43h3.22c1.78,0,3.22-1.44,3.22-3.22s-1.44-3.22-3.22-3.22H11.54c-1.78,0-3.22,1.44-3.22,3.22s1.44,3.22,3.22,3.22h6.43v6.43H5.11c-1.78,0-3.22,1.44-3.22,3.22s1.44,3.22,3.22,3.22h12.86c.31,5.41,4.78,9.64,10.2,9.65h16.08c-1.49,1.46-2.76,3.13-3.76,4.95-4.29,8.42-6.5,17.75-6.43,27.21,0,1.78,1.44,3.22,3.22,3.22h9.87c1.88,14.09,14.81,23.98,28.9,22.11,11.52-1.53,20.57-10.59,22.11-22.11h48.69c1.78,14.1,14.65,24.09,28.74,22.31,14.1-1.78,24.09-14.65,22.31-28.74-1.62-12.87-12.58-22.52-25.55-22.51ZM50.14,95.18h-9.65v-6.43h9.65v6.43ZM162.7,82.86v18.2c-5.03-1.77-7.67-7.28-5.9-12.3.97-2.76,3.14-4.93,5.9-5.9ZM141.73,88.29c2.58.39,4.64,2.36,5.15,4.92l.84,1.96c-4.48,2.3-9.47,3.41-14.5,3.22-.91-3.94,1.08-7.98,4.76-9.65,1.21-.39,2.49-.54,3.76-.42v-.03ZM125.88,56.9c-1.09.55-1.78,1.67-1.77,2.89-.05,1.64-.78,3.18-2.03,4.25-1.83,1.22-5.24.93-9.65-.8-.24-.03-.47-.03-.71,0l-.48-.42v-12.32c0-3.75,3.04-6.79,6.79-6.79h6.08c.1,4.16,1.41,8.21,3.76,11.64-.58.62-1.25,1.15-1.99,1.58v-.03ZM88.73,40.21c.33-10.36,8.65-18.67,19.01-19.01h.29c9.42,0,17.47,6.79,19.04,16.08h-9.04c-7.29.02-13.2,5.93-13.22,13.22v9.04c-9.39-1.59-16.21-9.78-16.08-19.3v-.03ZM98.38,66.23c10.52,0,14.38,5.5,18.46,11.29,2.96,4.25,6.43,8.88,12.22,10.52-1.82,2.94-2.64,6.39-2.35,9.84-8.07-1.76-15.02-6.86-19.14-14.02-.68-1.64-2.56-2.42-4.2-1.75-1.64.68-2.42,2.56-1.75,4.2.11.27.26.53.45.76,1.17,1.96,2.5,3.81,3.99,5.53l-.29.19c-3,3.45-5.11,7.58-6.14,12.03h-26.98v-3.22c.23-1.96,3.89-35.38,25.73-35.38ZM72.65,117.08v-5.82h28.95c.64,0,16.08.19,16.08,16.08v16.08h-12.86v-6.43c.33-8.56-6.35-15.75-14.9-16.08-.39-.01-.79-.01-1.18,0h-16.82c.49-1.22.74-2.52.74-3.83ZM72.65,178.8c-9.41,0-17.44-6.8-19.01-16.08h6.59c1.86,6.86,8.93,10.9,15.79,9.04,4.4-1.2,7.84-4.64,9.04-9.04h6.59c-1.57,9.28-9.6,16.07-19.01,16.08ZM67.12,162.72h11.06c-1.81,3.06-5.76,4.06-8.81,2.25-.93-.55-1.7-1.32-2.25-2.25ZM40.49,156.28c.41-7.4,2.41-14.63,5.85-21.19,2.61-4.85,7.71-7.84,13.22-7.75h29.17c5.05-.27,9.37,3.6,9.65,8.66.02.33.02.66,0,.99v9.65c0,3.48,1.13,6.86,3.22,9.65h-61.11ZM114.46,156.28c-4.08-.01-7.71-2.59-9.07-6.43h15.5c3.33-.21,6.21,2.31,6.42,5.65.01.19.02.37.01.56-1.07.14-2.14.22-3.22.23h-9.65ZM135.08,152.52c-.46.53-.99.99-1.58,1.38-.72-4.98-4.47-8.98-9.39-10.03v-16.53c.6-10.88-7.17-20.42-17.95-22.03.82-2.88,2.24-5.57,4.15-7.88.08-.11.16-.23.23-.35,4.99,4.05,11,6.65,17.37,7.53l9.07,39.43c.51,2.97-.17,6.02-1.9,8.49ZM143.41,142.71l-8.84-37.89c5.44.05,10.82-1.18,15.69-3.6l15.18,35.38-14.02,19.68h-11.22c2.85-3.91,4.01-8.8,3.22-13.57ZM172.35,156.28h-5.53c1.78-3.08,5.71-4.13,8.79-2.35s4.13,5.71,2.35,8.79c-1.78,3.08-5.71,4.13-8.79,2.35-.98-.56-1.79-1.38-2.35-2.35h5.53c1.78,0,3.22-1.44,3.22-3.22s-1.44-3.22-3.22-3.22ZM159.29,156.28l1.13-1.58c-.19.51-.36,1.04-.48,1.58h-.64ZM172.35,178.8c-9.41,0-17.44-6.8-19.01-16.08h6.59c1.79,6.88,8.81,11,15.68,9.22,6.88-1.79,11-8.81,9.22-15.68-1.79-6.88-8.81-11-15.68-9.22-1.96.51-3.78,1.48-5.3,2.82l6.85-9.65h1.64c10.66,0,19.3,8.64,19.3,19.3s-8.64,19.3-19.3,19.3Z"/>
</svg>