<?xml version="1.0" encoding="UTF-8"?>
<svg id="Layer_1" data-name="Layer 1" xmlns="http://www.w3.org/2000/svg" viewBox="0 0 200 200">
  <defs>
    <style>
      .cls-1 {
        fill: #fff;
      }
    </style>
  </defs>
  <path class="cls-1" d="M148.68,53.23l-11.12-47.13c-.36-1.53-1.9-2.48-3.43-2.12-1.53.36-2.48,1.9-2.12,3.43l11.12,47.13c.31,1.31,1.48,2.2,2.78,2.2.22,0,.44-.02.66-.08,1.53-.36,2.49-1.9,2.12-3.43Z"/>
  <path class="cls-1" d="M181.57,192.59l-30.72-130.18c-.36-1.53-1.9-2.48-3.43-2.12-1.53.36-2.48,1.9-2.12,3.43l30.72,130.18c.31,1.31,1.48,2.2,2.78,2.2.22,0,.44-.02.66-.08,1.53-.36,2.49-1.9,2.12-3.43Z"/>
  <path class="cls-1" d="M26.26,171.88c-1.53-.36-3.07.59-3.43,2.12l-4.39,18.59c-.36,1.53.59,3.07,2.12,3.43.22.05.44.08.66.08,1.29,0,2.47-.89,2.78-2.2l4.39-18.59c.36-1.53-.59-3.07-2.12-3.43Z"/>
  <path class="cls-1" d="M65.88,3.97c-1.53-.36-3.07.59-3.43,2.12L25.66,161.98c-.36,1.53.59,3.07,2.12,3.43.22.05.44.08.66.08,1.29,0,2.47-.89,2.78-2.2L68,7.4c.36-1.53-.59-3.07-2.12-3.43Z"/>
  <path class="cls-1" d="M197.14,192.47L144.41,5.97c-.43-1.52-2.01-2.4-3.52-1.97-1.52.43-2.4,2.01-1.97,3.52l52.73,186.5c.36,1.26,1.5,2.08,2.75,2.08.26,0,.52-.03.78-.11,1.52-.43,2.4-2.01,1.97-3.52Z"/>
  <path class="cls-1" d="M59.12,4c-1.52-.43-3.09.45-3.52,1.97L2.86,192.47c-.43,1.52.45,3.09,1.97,3.52.26.07.52.11.78.11,1.24,0,2.39-.82,2.75-2.08L61.09,7.53c.43-1.52-.45-3.1-1.97-3.52Z"/>
  <path class="cls-1" d="M107.39,6.66c-.05-1.58-1.35-2.82-2.94-2.77-1.58.05-2.81,1.37-2.77,2.94l.34,10.92h-4.04l.34-10.92c.05-1.58-1.19-2.89-2.77-2.94-1.56-.05-2.89,1.19-2.94,2.77l-.43,13.87c-.02.77.27,1.52.8,2.08.54.55,1.28.87,2.05.87h9.93c.77,0,1.51-.31,2.05-.87.54-.55.83-1.3.8-2.08l-.43-13.87Z"/>
  <path class="cls-1" d="M108.04,27.7c-.05-1.54-1.31-2.77-2.85-2.77h-10.37c-1.54,0-2.81,1.23-2.85,2.77l-.75,24.34c-.02.77.27,1.52.8,2.08.54.55,1.28.87,2.05.87h11.87c.77,0,1.51-.31,2.05-.87.54-.55.83-1.3.8-2.08l-.75-24.34ZM97.01,49.28l.57-18.63h4.83l.57,18.63h-5.98Z"/>
  <path class="cls-1" d="M109.07,61.19c-.05-1.54-1.31-2.77-2.85-2.77h-12.43c-1.54,0-2.81,1.23-2.85,2.77l-.86,27.78c-.02.77.27,1.52.8,2.08.54.55,1.28.87,2.05.87h14.14c.77,0,1.51-.31,2.05-.87.54-.55.83-1.3.8-2.08l-.86-27.78ZM95.87,86.21l.68-22.08h6.9l.68,22.08h-8.26Z"/>
  <path class="cls-1" d="M110.32,101.89c-.05-1.54-1.31-2.77-2.85-2.77h-14.94c-1.54,0-2.81,1.23-2.85,2.77l-1.04,33.9c-.02.77.27,1.52.8,2.08.54.55,1.28.87,2.05.87h17.02c.77,0,1.51-.31,2.05-.87.54-.55.83-1.3.8-2.08l-1.04-33.9ZM94.43,133.03l.87-28.19h9.4l.87,28.19h-11.13Z"/>
  <path class="cls-1" d="M111.87,152.13c-.05-1.54-1.31-2.77-2.85-2.77h-18.03c-1.54,0-2.81,1.23-2.85,2.77l-1.26,41.03c-.05,1.58,1.19,2.89,2.77,2.94,1.56.05,2.89-1.19,2.94-2.77l1.18-38.27h12.49l1.18,38.27c.05,1.55,1.32,2.77,2.85,2.77.03,0,.06,0,.09,0,1.58-.05,2.81-1.37,2.77-2.94l-1.26-41.03Z"/>
</svg>