<?xml version="1.0" encoding="UTF-8"?>
<svg id="Layer_1" data-name="Layer 1" xmlns="http://www.w3.org/2000/svg" viewBox="0 0 200 200">
  <defs>
    <style>
      .cls-1 {
        fill: #fff;
      }
    </style>
  </defs>
  <g id="g729">
    <g id="g731">
      <g id="g733">
        <g id="g739">
          <g id="path741">
            <path class="cls-1" d="M102.62,52.16h-5.25c-3.55,0-6.43-2.89-6.43-6.43v-2.96h-2.95c-3.55,0-6.43-2.89-6.43-6.43v-5.24c0-3.55,2.89-6.43,6.43-6.43h2.95v-2.95c0-3.55,2.89-6.43,6.43-6.43h5.25c3.54,0,6.42,2.89,6.42,6.43v2.95h2.96c3.55,0,6.43,2.89,6.43,6.43v5.24c0,3.55-2.89,6.43-6.43,6.43h-2.96v2.96c0,3.55-2.88,6.43-6.42,6.43ZM88,30.34c-.41,0-.76.35-.76.76v5.24c0,.41.35.76.76.76h5.78c1.57,0,2.83,1.27,2.83,2.83v5.79c0,.41.35.76.76.76h5.25c.41,0,.75-.35.75-.76v-5.79c0-1.57,1.27-2.83,2.83-2.83h5.79c.41,0,.76-.35.76-.76v-5.24c0-.41-.35-.76-.76-.76h-5.79c-1.57,0-2.83-1.27-2.83-2.83v-5.78c0-.41-.34-.76-.75-.76h-5.25c-.41,0-.76.35-.76.76v5.78c0,1.57-1.27,2.83-2.83,2.83h-5.78Z"/>
          </g>
        </g>
        <g id="g743">
          <g id="path745">
            <path class="cls-1" d="M193.91,93.93h-40.16c-1.57,0-2.83-1.27-2.83-2.83s1.27-2.83,2.83-2.83h40.16c1.57,0,2.83,1.27,2.83,2.83s-1.27,2.83-2.83,2.83Z"/>
          </g>
        </g>
        <g id="g747">
          <g id="path749">
            <path class="cls-1" d="M46.24,93.93H6.09c-1.57,0-2.83-1.27-2.83-2.83s1.27-2.83,2.83-2.83h40.16c1.57,0,2.83,1.27,2.83,2.83s-1.27,2.83-2.83,2.83Z"/>
          </g>
        </g>
        <g id="g751">
          <g id="path753">
            <path class="cls-1" d="M112.56,177.32c-1.57,0-2.83-1.27-2.83-2.83v-7.64c0-1.57,1.27-2.83,2.83-2.83s2.83,1.27,2.83,2.83v7.64c0,1.57-1.27,2.83-2.83,2.83Z"/>
          </g>
        </g>
        <g id="g755">
          <g id="path757">
            <path class="cls-1" d="M87.43,177.37c-1.57,0-2.83-1.27-2.83-2.83v-7.63c0-1.57,1.27-2.83,2.83-2.83s2.83,1.27,2.83,2.83v7.63c0,1.57-1.27,2.83-2.83,2.83Z"/>
          </g>
        </g>
        <g id="g759">
          <g id="path761">
            <path class="cls-1" d="M182,131.22h-16.32c-1.57,0-2.83-1.27-2.83-2.83s1.27-2.83,2.83-2.83h16.32c1.57,0,2.83,1.27,2.83,2.83s-1.27,2.83-2.83,2.83Z"/>
          </g>
        </g>
        <g id="g763">
          <g id="path765">
            <path class="cls-1" d="M182,149.86h-16.32c-1.57,0-2.83-1.27-2.83-2.83s1.27-2.83,2.83-2.83h16.32c1.57,0,2.83,1.27,2.83,2.83s-1.27,2.83-2.83,2.83Z"/>
          </g>
        </g>
        <g id="g767">
          <g id="path769">
            <path class="cls-1" d="M182,168.5h-16.32c-1.57,0-2.83-1.27-2.83-2.83s1.27-2.83,2.83-2.83h16.32c1.57,0,2.83,1.27,2.83,2.83s-1.27,2.83-2.83,2.83Z"/>
          </g>
        </g>
        <g id="g771">
          <g id="path773">
            <path class="cls-1" d="M182,112.58h-16.32c-1.57,0-2.83-1.27-2.83-2.83s1.27-2.83,2.83-2.83h16.32c1.57,0,2.83,1.27,2.83,2.83s-1.27,2.83-2.83,2.83Z"/>
          </g>
        </g>
        <g id="g775">
          <g id="path777">
            <path class="cls-1" d="M34.33,131.22h-16.32c-1.57,0-2.83-1.27-2.83-2.83s1.27-2.83,2.83-2.83h16.32c1.57,0,2.83,1.27,2.83,2.83s-1.27,2.83-2.83,2.83Z"/>
          </g>
        </g>
        <g id="g779">
          <g id="path781">
            <path class="cls-1" d="M34.33,149.86h-16.32c-1.57,0-2.83-1.27-2.83-2.83s1.27-2.83,2.83-2.83h16.32c1.57,0,2.83,1.27,2.83,2.83s-1.27,2.83-2.83,2.83Z"/>
          </g>
        </g>
        <g id="g783">
          <g id="path785">
            <path class="cls-1" d="M34.33,168.5h-16.32c-1.57,0-2.83-1.27-2.83-2.83s1.27-2.83,2.83-2.83h16.32c1.57,0,2.83,1.27,2.83,2.83s-1.27,2.83-2.83,2.83Z"/>
          </g>
        </g>
        <g id="g787">
          <g id="path789">
            <path class="cls-1" d="M34.33,112.58h-16.32c-1.57,0-2.83-1.27-2.83-2.83s1.27-2.83,2.83-2.83h16.32c1.57,0,2.83,1.27,2.83,2.83s-1.27,2.83-2.83,2.83Z"/>
          </g>
        </g>
        <g id="g791">
          <g id="path793">
            <path class="cls-1" d="M80.15,95.83h-13.12c-2.22,0-4.03-1.81-4.03-4.04v-11.92c0-2.23,1.81-4.04,4.03-4.04h13.12c2.23,0,4.04,1.81,4.04,4.04v11.92c0,2.23-1.81,4.04-4.04,4.04ZM68.67,90.16h9.84v-8.65h-9.84v8.65ZM80.15,81.5h0,0Z"/>
          </g>
        </g>
        <g id="g795">
          <g id="path797">
            <path class="cls-1" d="M106.56,95.83h-13.12c-2.23,0-4.04-1.81-4.04-4.04v-11.92c0-2.23,1.81-4.04,4.04-4.04h13.12c2.22,0,4.03,1.81,4.03,4.04v11.92c0,2.23-1.81,4.04-4.03,4.04ZM95.07,90.16h9.84v-8.65h-9.84v8.65ZM106.56,81.5h0,0Z"/>
          </g>
        </g>
        <g id="g799">
          <g id="path801">
            <path class="cls-1" d="M132.96,95.83h-13.11c-2.23,0-4.04-1.81-4.04-4.04v-11.92c0-2.23,1.81-4.04,4.04-4.04h13.11c2.23,0,4.04,1.81,4.04,4.04v11.92c0,2.23-1.81,4.04-4.04,4.04ZM121.49,90.16h9.84v-8.65h-9.84v8.65ZM132.96,81.5h0,0Z"/>
          </g>
        </g>
        <g id="g803">
          <g id="path805">
            <path class="cls-1" d="M80.15,121.79h-13.12c-2.22,0-4.03-1.81-4.03-4.03v-11.92c0-2.23,1.81-4.04,4.03-4.04h13.12c2.23,0,4.04,1.81,4.04,4.04v11.92c0,2.22-1.81,4.03-4.04,4.03ZM68.67,116.12h9.84v-8.64h-9.84v8.64ZM80.15,107.48h0,0Z"/>
          </g>
        </g>
        <g id="g807">
          <g id="path809">
            <path class="cls-1" d="M106.56,121.79h-13.12c-2.23,0-4.04-1.81-4.04-4.03v-11.92c0-2.23,1.81-4.04,4.04-4.04h13.12c2.22,0,4.03,1.81,4.03,4.04v11.92c0,2.22-1.81,4.03-4.03,4.03ZM95.07,116.12h9.84v-8.64h-9.84v8.64ZM106.56,107.48h0,0Z"/>
          </g>
        </g>
        <g id="g811">
          <g id="path813">
            <path class="cls-1" d="M132.96,121.79h-13.11c-2.23,0-4.04-1.81-4.04-4.03v-11.92c0-2.23,1.81-4.04,4.04-4.04h13.11c2.23,0,4.04,1.81,4.04,4.04v11.92c0,2.22-1.81,4.03-4.04,4.03ZM121.49,116.12h9.84v-8.64h-9.84v8.64ZM132.96,107.48h0,0Z"/>
          </g>
        </g>
        <g id="g815">
          <g id="path817">
            <path class="cls-1" d="M129.78,196.11h-59.57c-1.57,0-2.83-1.27-2.83-2.83v-46.4c0-3.02,2.52-5.48,5.62-5.48h54.01c3.09,0,5.61,2.46,5.61,5.48v46.4c0,1.57-1.27,2.83-2.83,2.83ZM73.04,190.44h53.9v-43.38h-53.9s0,43.38,0,43.38Z"/>
          </g>
        </g>
        <g id="g819">
          <g id="path821">
            <path class="cls-1" d="M100,196.11c-1.57,0-2.83-1.27-2.83-2.83v-45.11c0-1.57,1.27-2.83,2.83-2.83s2.83,1.27,2.83,2.83v45.11c0,1.57-1.27,2.83-2.83,2.83Z"/>
          </g>
        </g>
        <g id="g823">
          <g id="path825">
            <path class="cls-1" d="M153.76,196.11H46.24c-1.57,0-2.83-1.27-2.83-2.83v-46.5c0-1.57,1.27-2.83,2.83-2.83s2.83,1.27,2.83,2.83v43.66h101.85V60.72c0-1.57,1.27-2.83,2.83-2.83s2.83,1.27,2.83,2.83v132.55c0,1.57-1.27,2.83-2.83,2.83ZM46.24,136.25c-1.57,0-2.83-1.27-2.83-2.83V60.72c0-1.57,1.27-2.83,2.83-2.83s2.83,1.27,2.83,2.83v72.7c0,1.57-1.27,2.83-2.83,2.83Z"/>
          </g>
        </g>
        <g id="g827">
          <g id="path829">
            <path class="cls-1" d="M193.91,196.11h-40.16c-1.57,0-2.83-1.27-2.83-2.83v-118.81c0-1.57,1.27-2.83,2.83-2.83h38.02c2.74,0,4.97,2.23,4.97,4.98v116.67c0,1.57-1.27,2.83-2.83,2.83ZM156.59,190.44h34.49v-113.14h-34.49v113.14Z"/>
          </g>
        </g>
        <g id="g831">
          <g id="path833">
            <path class="cls-1" d="M46.24,196.11H6.09c-1.57,0-2.83-1.27-2.83-2.83v-116.67c0-2.74,2.23-4.98,4.97-4.98h38.02c1.57,0,2.83,1.27,2.83,2.83s-1.27,2.83-2.83,2.83H8.92v113.14h37.32c1.57,0,2.83,1.27,2.83,2.83s-1.27,2.83-2.83,2.83Z"/>
          </g>
        </g>
        <g id="g835">
          <g id="path837">
            <path class="cls-1" d="M131.94,63.55c-1.57,0-2.83-1.27-2.83-2.83V9.56h-58.2v51.15c0,1.57-1.27,2.83-2.83,2.83s-2.83-1.27-2.83-2.83V8.62c0-2.61,2.12-4.73,4.73-4.73h60.08c2.61,0,4.74,2.12,4.74,4.73v52.1c0,1.57-1.27,2.83-2.83,2.83Z"/>
          </g>
        </g>
        <g id="g839">
          <g id="path841">
            <path class="cls-1" d="M157.63,63.55h-49.25c-1.57,0-2.83-1.27-2.83-2.83s1.27-2.83,2.83-2.83h48.9v-12.04h-25.34c-1.57,0-2.83-1.27-2.83-2.83s1.27-2.83,2.83-2.83h25.69c2.93,0,5.32,2.38,5.32,5.32v12.75c0,2.93-2.38,5.32-5.32,5.32ZM95.03,63.55h-52.65c-2.94,0-5.33-2.38-5.33-5.32v-12.75c0-2.93,2.39-5.32,5.33-5.32h25.69c1.57,0,2.83,1.27,2.83,2.83s-1.27,2.83-2.83,2.83h-25.35v12.04h52.31c1.57,0,2.83,1.27,2.83,2.83s-1.27,2.83-2.83,2.83Z"/>
          </g>
        </g>
      </g>
    </g>
  </g>
</svg>