<?xml version="1.0" encoding="UTF-8"?>
<svg id="Layer_1" data-name="Layer 1" xmlns="http://www.w3.org/2000/svg" viewBox="0 0 200 200">
  <defs>
    <style>
      .cls-1 {
        fill: #fff;
      }
    </style>
  </defs>
  <g id="Icons">
    <g id="Leaves">
      <path class="cls-1" d="M194.13,2.63c-27.08-.08-53.45,8.61-75.19,24.75-1.44,1.07-1.74,3.1-.68,4.54,1.07,1.44,3.1,1.74,4.54.68,19.73-14.66,43.51-22.84,68.08-23.44v42.15c-.08,64.53-51.09,117.49-115.57,119.99,5.43-16.48,12.3-32.45,20.55-47.71,4.85.44,9.7.7,14.55.7,7.54,0,15.06-.54,22.52-1.62,5.58-.81,11.11-1.91,16.57-3.31,1.74-.45,2.78-2.22,2.33-3.96-.45-1.74-2.22-2.78-3.96-2.33-5.23,1.34-10.54,2.4-15.88,3.18-10.82,1.53-21.77,1.89-32.67,1.07,1.13-1.98,2.27-3.96,3.45-5.92,7.83-12.92,16.65-25.21,26.37-36.76,2.92.27,5.84.44,8.79.44,4.85,0,9.68-.37,14.48-1.09,8.09-1.23,15.99-3.49,23.52-6.72,1.65-.71,2.41-2.62,1.7-4.26-.71-1.65-2.62-2.41-4.26-1.7-7.01,3.01-14.38,5.12-21.92,6.26-5.63.86-11.34,1.18-17.03.96,10.96-12.36,22.93-23.78,35.79-34.15,1.44-1.07,1.74-3.1.67-4.54-1.07-1.44-3.1-1.74-4.54-.67-.07.05-.14.11-.2.16-6.04,4.87-11.83,9.98-17.44,15.25-.21-5.03.8-10.03,2.94-14.58.68-1.66-.12-3.55-1.78-4.23-1.53-.62-3.28,0-4.07,1.45-2.62,5.54-3.84,11.63-3.57,17.75.09,1.76.31,3.51.67,5.24-14,13.85-26.61,29.05-37.62,45.37-1.13-2.8-1.8-5.75-2-8.76-.32-5.03.69-10.06,2.92-14.58.74-1.63.03-3.56-1.6-4.3-1.56-.71-3.41-.09-4.21,1.43-5.13,10.33-4.85,22.52.75,32.6-1.3,2.03-2.62,4.04-3.87,6.11-9.11,15.1-16.87,30.98-23.19,47.45v-26.29c-.02-28.76,10.31-56.57,29.1-78.34,1.14-1.39.93-3.43-.46-4.57-1.33-1.09-3.29-.95-4.45.32-10.18,11.79-18.08,25.37-23.3,40.04-1.88-2.9-3.99-5.65-6.3-8.22-19.16-21.22-45.79-23.78-56.38-23.89h-6.36c-1.79,0-3.25,1.45-3.25,3.25v39c.25,11.44,2.71,22.72,7.25,33.22.52,1.18,1.69,1.95,2.98,1.95.45,0,.89-.09,1.3-.27,1.64-.72,2.39-2.63,1.68-4.27,0,0,0,0,0,0-4.19-9.69-6.47-20.11-6.71-30.67v-35.7h3.08c9.7.1,34.16,2.43,51.61,21.75,3.31,3.68,6.16,7.74,8.48,12.11-3.15,11.16-4.74,22.7-4.75,34.3v14.78c-3.38-11.25-7.86-22.15-13.36-32.53-5.61-10.55-12.26-20.51-19.83-29.75-1.11-1.41-3.15-1.66-4.56-.55s-1.66,3.15-.55,4.56c.03.04.06.08.09.11,7.3,8.9,13.71,18.51,19.12,28.68,9.26,17.48,15.5,36.4,18.45,55.96-13.69-3.46-26.18-10.61-36.09-20.67-1.24-1.3-3.29-1.35-4.59-.11-1.3,1.24-1.35,3.29-.11,4.59.02.02.03.03.05.05,11.31,11.46,25.68,19.42,41.39,22.92v16.88c0,1.79,1.45,3.25,3.25,3.25s3.25-1.45,3.25-3.25v-16.31c68.58-1.82,123.25-57.9,123.34-126.5V5.87c0-1.79-1.45-3.25-3.25-3.25Z"/>
      <circle class="cls-1" cx="18.86" cy="142.19" r="3.25"/>
      <circle class="cls-1" cx="109.74" cy="38.33" r="3.25"/>
    </g>
  </g>
</svg>