<?xml version="1.0" encoding="UTF-8"?>
<svg id="Layer_1" data-name="Layer 1" xmlns="http://www.w3.org/2000/svg" viewBox="0 0 585.91 400">
  <defs>
    <style>
      .cls-1 {
        fill: #fff;
      }
    </style>
  </defs>
  <path class="cls-1" d="M43.74,341.94c-6.5-4.22-14.76-5.8-24.6-5.8H1.49v63.61h16.25c12.21,0,21-2.11,27.59-7.12,7.38-5.53,11.6-14.5,11.6-24.86,0-10.98-4.74-20.38-13.18-25.83ZM37.59,385.25c-4.57,3.34-10.54,4.57-18.89,4.57h-6.06v-43.75h5.97c6.94,0,13.35.62,18.36,4.04,5.27,3.6,8.79,9.84,8.79,17.75s-3.25,13.79-8.17,17.4Z"/>
  <path class="cls-1" d="M156.81,367.24c-2.28,6.06-4.57,12.12-6.59,17.92h-.18c-2.11-6.06-4.22-11.95-6.41-17.83l-11.77-31.19h-11.95l24.34,63.61h11.42l24.34-63.61h-11.42l-11.77,31.1Z"/>
  <path class="cls-1" d="M323.34,335.18c-18.71,0-32.77,14.23-32.77,32.77s14.06,32.77,32.77,32.77,32.77-14.23,32.77-32.77-14.06-32.77-32.77-32.77ZM323.34,390.52c-12.39,0-21.61-9.93-21.61-22.58s9.22-22.58,21.61-22.58,21.61,9.93,21.61,22.58-9.22,22.58-21.61,22.58Z"/>
  <path class="cls-1" d="M405.66,339.48c-5.36-2.9-12.28-3.34-18.89-3.34h-17.75v63.61h11.16v-23.9h5.45c8.79,0,15.64-.7,20.82-3.78,5.27-3.16,8.87-8.7,8.87-16.16,0-7.99-4.13-13.44-9.66-16.43ZM386.51,366.54h-6.33v-20.47h6.15c4.76,0,17.83-.89,17.83,10.19,0,10.41-10.77,10.28-17.66,10.28Z"/>
  <path class="cls-1" d="M527.79,354.77c0-7.56-3.95-12.65-9.14-15.46-5.01-2.72-11.33-3.16-17.83-3.16h-18.54v63.61h11.16v-26.27h8.52l17.75,26.27h13.09l-19.15-27.5c8.96-2.2,14.14-8.87,14.14-17.48ZM502.32,364.87h-8.87v-18.8h6.76c6.18,0,16.43.06,16.43,9.4,0,7-5.85,9.4-14.32,9.4Z"/>
  <polygon class="cls-1" points="256.83 336.14 245.68 336.14 245.68 399.75 283.89 399.75 285.72 389.82 256.83 389.82 256.83 336.14"/>
  <polygon class="cls-1" points="82.58 371.37 102.53 371.37 104.29 361.88 82.58 361.88 82.58 346.07 109.37 346.07 109.37 336.14 71.42 336.14 71.42 399.75 110.25 399.75 110.25 389.82 82.58 389.82 82.58 371.37"/>
  <polygon class="cls-1" points="202.7 371.37 222.66 371.37 224.41 361.88 202.7 361.88 202.7 346.07 229.49 346.07 229.49 336.14 191.54 336.14 191.54 399.75 230.37 399.75 230.37 389.82 202.7 389.82 202.7 371.37"/>
  <polygon class="cls-1" points="439.31 371.37 459.26 371.37 461.02 361.88 439.31 361.88 439.31 346.07 466.1 346.07 466.1 336.14 428.15 336.14 428.15 399.75 466.98 399.75 466.98 389.82 439.31 389.82 439.31 371.37"/>
  <path class="cls-1" d="M566.38,362.85c-7.64-2.37-14.32-3.25-14.32-10.02,0-5.36,4.22-7.73,10.19-7.73,8.84,0,18.98,1.75,18.98,1.75v-9.93s-8.57-1.75-18.89-1.75c-12.83,0-21.44,6.94-21.44,18.45s8.35,15.37,17.22,18.1c8.26,2.46,14.94,3.43,14.94,10.46,0,5.89-4.54,8.61-10.89,8.61-9.15,0-19.77-1.75-19.77-1.75v9.93s9.86,1.75,19.68,1.75c13.25,0,22.14-7.2,22.14-19.15s-8.43-15.81-17.83-18.71Z"/>
  <path class="cls-1" d="M100.06,249.27c0,26.92-19.41,42.98-51.95,42.98H1.49v-25.43h46.63c15.96,0,19.8-6.8,19.3-12.73-.62-7.34-8.79-10.55-25.55-16.68C14.86,227.54,1.1,215.96,1.1,195.51c0-24.31,19.06-40.01,48.54-40.01h45.19v25.39h-47.9c-7.09,0-13.1,2.6-13.1,9.11,0,4.83,2.54,8.61,14.86,12.81,31.54,10.75,51.38,19.93,51.38,46.46Z"/>
  <polygon class="cls-1" points="213.38 25.41 213.38 53.59 258.52 53.59 241.65 77.43 213.38 77.43 213.38 136.76 181.36 136.76 181.36 0 267.25 0 267.25 25.41 213.38 25.41"/>
  <polygon class="cls-1" points="526.42 180.89 526.42 209.07 574.44 209.07 557.56 232.93 526.42 232.93 526.42 266.82 583.18 266.82 583.18 292.25 494.39 292.25 494.39 155.49 583.18 155.49 583.18 180.89 526.42 180.89"/>
  <polygon class="cls-1" points="323.49 25.41 323.49 53.59 371.5 53.59 354.63 77.44 323.49 77.44 323.49 111.33 380.25 111.33 380.25 136.76 291.46 136.76 291.46 0 380.25 0 380.25 25.41 323.49 25.41"/>
  <polygon class="cls-1" points="227.01 155.5 227.01 180.89 186.84 180.89 186.84 292.25 154.81 292.25 154.81 180.89 114.62 180.89 114.62 155.5 227.01 155.5"/>
  <polygon class="cls-1" points="146.65 0 146.65 136.76 114.62 136.76 114.62 22.24 130.35 0 146.65 0"/>
  <polygon class="cls-1" points="460.52 292.25 478.51 266.82 416.62 266.82 416.62 155.51 400.32 155.51 384.59 177.74 384.59 292.25 460.52 292.25"/>
  <polygon class="cls-1" points="77.41 136.76 95.4 111.33 33.51 111.33 33.51 .02 1.49 .02 1.49 136.76 77.41 136.76"/>
  <polygon class="cls-1" points="337.84 155.5 305.97 200.55 274.09 155.5 236.23 155.5 289.51 230.82 289.51 292.25 321.53 292.25 321.53 230.82 374.81 155.5 337.84 155.5"/>
</svg>